<?xml version="1.0" encoding="UTF-8"?>
<svg width="1751px" height="2133px" viewBox="0 0 1751 2133" version="1.1" xmlns="http://www.w3.org/2000/svg" xmlns:xlink="http://www.w3.org/1999/xlink">
    <title>画板</title>
    <defs>
        <linearGradient x1="45.3739231%" y1="34.6292595%" x2="16.5851301%" y2="128.407667%" id="linearGradient-1">
            <stop stop-color="#045AFE" offset="0%"></stop>
            <stop stop-color="#045AFE" offset="100%"></stop>
        </linearGradient>
        <path d="M1148.18841,-1.13686838e-13 L1619.21841,472.8809 C1793.54841,647.8909 1793.26841,930.9969 1618.59841,1105.6649 L591.51541,2132.7449 L136.92741,1678.1649 C-45.2764897,1495.9549 -45.6951897,1200.6749 135.99141,1017.9549 L1148.18841,-1.13686838e-13 Z" id="path-2"></path>
        <linearGradient x1="125.929056%" y1="50.0001437%" x2="-0.565392408%" y2="50.0001422%" id="linearGradient-4">
            <stop stop-color="#045AFE" offset="0%"></stop>
            <stop stop-color="#FFFFFF" stop-opacity="0" offset="100%"></stop>
        </linearGradient>
        <linearGradient x1="125.929056%" y1="50.0001436%" x2="-0.565392408%" y2="50.0001422%" id="linearGradient-5">
            <stop stop-color="#045AFE" offset="0%"></stop>
            <stop stop-color="#FFFFFF" stop-opacity="0" offset="100%"></stop>
        </linearGradient>
        <linearGradient x1="125.929056%" y1="50.000145%" x2="-0.565392408%" y2="50.0001422%" id="linearGradient-6">
            <stop stop-color="#045AFE" offset="0%"></stop>
            <stop stop-color="#FFFFFF" stop-opacity="0" offset="100%"></stop>
        </linearGradient>
        <linearGradient x1="125.929056%" y1="50.0001436%" x2="-0.565392408%" y2="50.0001409%" id="linearGradient-7">
            <stop stop-color="#045AFE" offset="0%"></stop>
            <stop stop-color="#FFFFFF" stop-opacity="0" offset="100%"></stop>
        </linearGradient>
        <linearGradient x1="125.929056%" y1="50.0001437%" x2="-0.565392408%" y2="50.0001422%" id="linearGradient-8">
            <stop stop-color="#045AFE" offset="0%"></stop>
            <stop stop-color="#FFFFFF" stop-opacity="0" offset="100%"></stop>
        </linearGradient>
        <linearGradient x1="125.929056%" y1="50.0001437%" x2="-0.565392408%" y2="50.0001422%" id="linearGradient-9">
            <stop stop-color="#045AFE" offset="0%"></stop>
            <stop stop-color="#FFFFFF" stop-opacity="0" offset="100%"></stop>
        </linearGradient>
        <linearGradient x1="125.929056%" y1="50.0001437%" x2="-0.565392408%" y2="50.0001421%" id="linearGradient-10">
            <stop stop-color="#045AFE" offset="0%"></stop>
            <stop stop-color="#FFFFFF" stop-opacity="0" offset="100%"></stop>
        </linearGradient>
        <linearGradient x1="125.929056%" y1="50.0001436%" x2="-0.565392408%" y2="50.0001421%" id="linearGradient-11">
            <stop stop-color="#045AFE" offset="0%"></stop>
            <stop stop-color="#FFFFFF" stop-opacity="0" offset="100%"></stop>
        </linearGradient>
    </defs>
    <g id="画板" stroke="none" stroke-width="1" fill="none" fill-rule="evenodd">
        <g id="编组" transform="translate(0.094742, -0.187450)">
            <path d="M1147.9253,0.8872 L1618.9553,473.7679 C1793.2853,648.7779 1793.0053,931.8839 1618.3353,1106.5549 L591.515298,2133.3749 L136.927298,1678.7849 C-45.2765023,1496.5749 -45.6951023,1201.2949 135.991298,1018.5749 L1147.9253,0.8872 Z" id="路径" fill="url(#linearGradient-1)" fill-rule="nonzero"></path>
            <g id="Clipped" transform="translate(1.026887, 0.000000)">
                <mask id="mask-3" fill="white">
                    <use xlink:href="#path-2"></use>
                </mask>
                <g id="路径"></g>
                <g id="编组" mask="url(#mask-3)" opacity="0.2">
                    <g transform="translate(302.516410, 2.243700)">
                        <g transform="translate(0.000000, 787.835200)">
                            <rect id="矩形" fill="url(#linearGradient-4)" fill-rule="nonzero" x="1.13686838e-13" y="1.13686838e-13" width="1850.75" height="4.67656"></rect>
                            <rect id="矩形" fill="url(#linearGradient-4)" fill-rule="nonzero" x="1.13686838e-13" y="14.03" width="1850.75" height="4.67656"></rect>
                            <rect id="矩形" fill="url(#linearGradient-4)" fill-rule="nonzero" x="1.13686838e-13" y="28.06" width="1850.75" height="4.67656"></rect>
                            <rect id="矩形" fill="url(#linearGradient-4)" fill-rule="nonzero" x="1.13686838e-13" y="42.089" width="1850.75" height="4.67656"></rect>
                            <rect id="矩形" fill="url(#linearGradient-4)" fill-rule="nonzero" x="1.13686838e-13" y="56.119" width="1850.75" height="4.67656"></rect>
                            <rect id="矩形" fill="url(#linearGradient-4)" fill-rule="nonzero" x="1.13686838e-13" y="70.148" width="1850.75" height="4.67656"></rect>
                            <rect id="矩形" fill="url(#linearGradient-4)" fill-rule="nonzero" x="1.13686838e-13" y="84.178" width="1850.75" height="4.67656"></rect>
                            <rect id="矩形" fill="url(#linearGradient-4)" fill-rule="nonzero" x="1.13686838e-13" y="98.208" width="1850.75" height="4.67656"></rect>
                            <rect id="矩形" fill="url(#linearGradient-4)" fill-rule="nonzero" x="1.13686838e-13" y="112.237" width="1850.75" height="4.67656"></rect>
                            <rect id="矩形" fill="url(#linearGradient-4)" fill-rule="nonzero" x="1.13686838e-13" y="126.267" width="1850.75" height="4.67656"></rect>
                            <rect id="矩形" fill="url(#linearGradient-4)" fill-rule="nonzero" x="1.13686838e-13" y="140.297" width="1850.75" height="4.67656"></rect>
                            <rect id="矩形" fill="url(#linearGradient-5)" fill-rule="nonzero" x="1.13686838e-13" y="154.326" width="1850.75" height="4.67656"></rect>
                            <rect id="矩形" fill="url(#linearGradient-5)" fill-rule="nonzero" x="1.13686838e-13" y="168.356" width="1850.75" height="4.67656"></rect>
                            <rect id="矩形" fill="url(#linearGradient-5)" fill-rule="nonzero" x="1.13686838e-13" y="182.386" width="1850.75" height="4.67656"></rect>
                            <rect id="矩形" fill="url(#linearGradient-5)" fill-rule="nonzero" x="1.13686838e-13" y="196.416" width="1850.75" height="4.67656"></rect>
                            <rect id="矩形" fill="url(#linearGradient-5)" fill-rule="nonzero" x="1.13686838e-13" y="210.446" width="1850.75" height="4.67656"></rect>
                            <rect id="矩形" fill="url(#linearGradient-5)" fill-rule="nonzero" x="1.13686838e-13" y="224.476" width="1850.75" height="4.67656"></rect>
                            <rect id="矩形" fill="url(#linearGradient-5)" fill-rule="nonzero" x="1.13686838e-13" y="238.506" width="1850.75" height="4.67656"></rect>
                            <rect id="矩形" fill="url(#linearGradient-5)" fill-rule="nonzero" x="1.13686838e-13" y="252.536" width="1850.75" height="4.67656"></rect>
                            <rect id="矩形" fill="url(#linearGradient-5)" fill-rule="nonzero" x="1.13686838e-13" y="266.566" width="1850.75" height="4.67656"></rect>
                            <rect id="矩形" fill="url(#linearGradient-5)" fill-rule="nonzero" x="1.13686838e-13" y="280.596" width="1850.75" height="4.67656"></rect>
                            <rect id="矩形" fill="url(#linearGradient-5)" fill-rule="nonzero" x="1.13686838e-13" y="294.626" width="1850.75" height="4.67656"></rect>
                            <rect id="矩形" fill="url(#linearGradient-5)" fill-rule="nonzero" x="1.13686838e-13" y="308.656" width="1850.75" height="4.67656"></rect>
                            <rect id="矩形" fill="url(#linearGradient-5)" fill-rule="nonzero" x="1.13686838e-13" y="322.686" width="1850.75" height="4.67656"></rect>
                            <rect id="矩形" fill="url(#linearGradient-5)" fill-rule="nonzero" x="1.13686838e-13" y="336.716" width="1850.75" height="4.67656"></rect>
                            <rect id="矩形" fill="url(#linearGradient-5)" fill-rule="nonzero" x="1.13686838e-13" y="350.746" width="1850.75" height="4.67656"></rect>
                            <rect id="矩形" fill="url(#linearGradient-5)" fill-rule="nonzero" x="1.13686838e-13" y="364.776" width="1850.75" height="4.67656"></rect>
                            <rect id="矩形" fill="url(#linearGradient-5)" fill-rule="nonzero" x="1.13686838e-13" y="378.806" width="1850.75" height="4.67656"></rect>
                            <rect id="矩形" fill="url(#linearGradient-5)" fill-rule="nonzero" x="1.13686838e-13" y="392.836" width="1850.75" height="4.67656"></rect>
                            <rect id="矩形" fill="url(#linearGradient-6)" fill-rule="nonzero" x="1.13686838e-13" y="406.856" width="1850.75" height="4.67656"></rect>
                            <rect id="矩形" fill="url(#linearGradient-6)" fill-rule="nonzero" x="1.13686838e-13" y="420.886" width="1850.75" height="4.67656"></rect>
                            <rect id="矩形" fill="url(#linearGradient-6)" fill-rule="nonzero" x="1.13686838e-13" y="434.916" width="1850.75" height="4.67656"></rect>
                            <rect id="矩形" fill="url(#linearGradient-5)" fill-rule="nonzero" x="1.13686838e-13" y="448.946" width="1850.75" height="4.67656"></rect>
                            <rect id="矩形" fill="url(#linearGradient-5)" fill-rule="nonzero" x="1.13686838e-13" y="462.976" width="1850.75" height="4.67656"></rect>
                            <rect id="矩形" fill="url(#linearGradient-5)" fill-rule="nonzero" x="1.13686838e-13" y="477.006" width="1850.75" height="4.67656"></rect>
                            <rect id="矩形" fill="url(#linearGradient-5)" fill-rule="nonzero" x="1.13686838e-13" y="491.036" width="1850.75" height="4.67656"></rect>
                            <rect id="矩形" fill="url(#linearGradient-5)" fill-rule="nonzero" x="1.13686838e-13" y="505.066" width="1850.75" height="4.67656"></rect>
                            <rect id="矩形" fill="url(#linearGradient-5)" fill-rule="nonzero" x="1.13686838e-13" y="519.096" width="1850.75" height="4.67656"></rect>
                            <rect id="矩形" fill="url(#linearGradient-5)" fill-rule="nonzero" x="1.13686838e-13" y="533.126" width="1850.75" height="4.67656"></rect>
                            <rect id="矩形" fill="url(#linearGradient-5)" fill-rule="nonzero" x="1.13686838e-13" y="547.156" width="1850.75" height="4.67656"></rect>
                            <rect id="矩形" fill="url(#linearGradient-5)" fill-rule="nonzero" x="1.13686838e-13" y="561.186" width="1850.75" height="4.67656"></rect>
                            <rect id="矩形" fill="url(#linearGradient-5)" fill-rule="nonzero" x="1.13686838e-13" y="575.216" width="1850.75" height="4.67656"></rect>
                            <rect id="矩形" fill="url(#linearGradient-5)" fill-rule="nonzero" x="1.13686838e-13" y="589.246" width="1850.75" height="4.67656"></rect>
                            <rect id="矩形" fill="url(#linearGradient-5)" fill-rule="nonzero" x="1.13686838e-13" y="603.276" width="1850.75" height="4.67656"></rect>
                            <rect id="矩形" fill="url(#linearGradient-5)" fill-rule="nonzero" x="1.13686838e-13" y="617.306" width="1850.75" height="4.67656"></rect>
                            <rect id="矩形" fill="url(#linearGradient-5)" fill-rule="nonzero" x="1.13686838e-13" y="631.336" width="1850.75" height="4.67656"></rect>
                            <rect id="矩形" fill="url(#linearGradient-5)" fill-rule="nonzero" x="1.13686838e-13" y="645.366" width="1850.75" height="4.67656"></rect>
                            <rect id="矩形" fill="url(#linearGradient-5)" fill-rule="nonzero" x="1.13686838e-13" y="659.396" width="1850.75" height="4.67656"></rect>
                            <rect id="矩形" fill="url(#linearGradient-5)" fill-rule="nonzero" x="1.13686838e-13" y="673.426" width="1850.75" height="4.67656"></rect>
                            <rect id="矩形" fill="url(#linearGradient-5)" fill-rule="nonzero" x="1.13686838e-13" y="687.456" width="1850.75" height="4.67656"></rect>
                            <rect id="矩形" fill="url(#linearGradient-5)" fill-rule="nonzero" x="1.13686838e-13" y="701.486" width="1850.75" height="4.67656"></rect>
                            <rect id="矩形" fill="url(#linearGradient-5)" fill-rule="nonzero" x="1.13686838e-13" y="715.516" width="1850.75" height="4.67656"></rect>
                            <rect id="矩形" fill="url(#linearGradient-5)" fill-rule="nonzero" x="1.13686838e-13" y="729.546" width="1850.75" height="4.67656"></rect>
                            <rect id="矩形" fill="url(#linearGradient-5)" fill-rule="nonzero" x="1.13686838e-13" y="743.576" width="1850.75" height="4.67656"></rect>
                            <rect id="矩形" fill="url(#linearGradient-5)" fill-rule="nonzero" x="1.13686838e-13" y="757.606" width="1850.75" height="4.67656"></rect>
                            <rect id="矩形" fill="url(#linearGradient-5)" fill-rule="nonzero" x="1.13686838e-13" y="771.636" width="1850.75" height="4.67656"></rect>
                            <rect id="矩形" fill="url(#linearGradient-5)" fill-rule="nonzero" x="1.13686838e-13" y="785.666" width="1850.75" height="4.67656"></rect>
                            <rect id="矩形" fill="url(#linearGradient-5)" fill-rule="nonzero" x="1.13686838e-13" y="799.696" width="1850.75" height="4.67656"></rect>
                            <rect id="矩形" fill="url(#linearGradient-5)" fill-rule="nonzero" x="1.13686838e-13" y="813.726" width="1850.75" height="4.67656"></rect>
                            <rect id="矩形" fill="url(#linearGradient-6)" fill-rule="nonzero" x="1.13686838e-13" y="827.746" width="1850.75" height="4.67656"></rect>
                            <rect id="矩形" fill="url(#linearGradient-6)" fill-rule="nonzero" x="1.13686838e-13" y="841.776" width="1850.75" height="4.67656"></rect>
                            <rect id="矩形" fill="url(#linearGradient-6)" fill-rule="nonzero" x="1.13686838e-13" y="855.806" width="1850.75" height="4.67656"></rect>
                            <rect id="矩形" fill="url(#linearGradient-5)" fill-rule="nonzero" x="1.13686838e-13" y="869.836" width="1850.75" height="4.67656"></rect>
                            <rect id="矩形" fill="url(#linearGradient-5)" fill-rule="nonzero" x="1.13686838e-13" y="883.866" width="1850.75" height="4.67656"></rect>
                            <rect id="矩形" fill="url(#linearGradient-5)" fill-rule="nonzero" x="1.13686838e-13" y="897.896" width="1850.75" height="4.67656"></rect>
                            <rect id="矩形" fill="url(#linearGradient-5)" fill-rule="nonzero" x="1.13686838e-13" y="911.926" width="1850.75" height="4.67656"></rect>
                            <rect id="矩形" fill="url(#linearGradient-5)" fill-rule="nonzero" x="1.13686838e-13" y="925.956" width="1850.75" height="4.67656"></rect>
                            <rect id="矩形" fill="url(#linearGradient-5)" fill-rule="nonzero" x="1.13686838e-13" y="939.986" width="1850.75" height="4.67656"></rect>
                            <rect id="矩形" fill="url(#linearGradient-5)" fill-rule="nonzero" x="1.13686838e-13" y="954.016" width="1850.75" height="4.67656"></rect>
                            <rect id="矩形" fill="url(#linearGradient-5)" fill-rule="nonzero" x="1.13686838e-13" y="968.046" width="1850.75" height="4.67656"></rect>
                            <rect id="矩形" fill="url(#linearGradient-5)" fill-rule="nonzero" x="1.13686838e-13" y="982.076" width="1850.75" height="4.67656"></rect>
                            <rect id="矩形" fill="url(#linearGradient-5)" fill-rule="nonzero" x="1.13686838e-13" y="996.106" width="1850.75" height="4.67656"></rect>
                            <rect id="矩形" fill="url(#linearGradient-5)" fill-rule="nonzero" x="1.13686838e-13" y="1010.136" width="1850.75" height="4.67656"></rect>
                            <rect id="矩形" fill="url(#linearGradient-5)" fill-rule="nonzero" x="1.13686838e-13" y="1024.166" width="1850.75" height="4.67656"></rect>
                            <rect id="矩形" fill="url(#linearGradient-5)" fill-rule="nonzero" x="1.13686838e-13" y="1038.196" width="1850.75" height="4.67656"></rect>
                            <rect id="矩形" fill="url(#linearGradient-5)" fill-rule="nonzero" x="1.13686838e-13" y="1052.226" width="1850.75" height="4.67656"></rect>
                            <rect id="矩形" fill="url(#linearGradient-5)" fill-rule="nonzero" x="1.13686838e-13" y="1066.256" width="1850.75" height="4.67656"></rect>
                            <rect id="矩形" fill="url(#linearGradient-5)" fill-rule="nonzero" x="1.13686838e-13" y="1080.286" width="1850.75" height="4.67656"></rect>
                            <rect id="矩形" fill="url(#linearGradient-5)" fill-rule="nonzero" x="1.13686838e-13" y="1094.316" width="1850.75" height="4.67656"></rect>
                            <rect id="矩形" fill="url(#linearGradient-5)" fill-rule="nonzero" x="1.13686838e-13" y="1108.346" width="1850.75" height="4.67656"></rect>
                            <rect id="矩形" fill="url(#linearGradient-5)" fill-rule="nonzero" x="1.13686838e-13" y="1122.376" width="1850.75" height="4.67656"></rect>
                            <rect id="矩形" fill="url(#linearGradient-5)" fill-rule="nonzero" x="1.13686838e-13" y="1136.406" width="1850.75" height="4.67656"></rect>
                            <rect id="矩形" fill="url(#linearGradient-5)" fill-rule="nonzero" x="1.13686838e-13" y="1150.436" width="1850.75" height="4.67656"></rect>
                            <rect id="矩形" fill="url(#linearGradient-5)" fill-rule="nonzero" x="1.13686838e-13" y="1164.466" width="1850.75" height="4.67656"></rect>
                            <rect id="矩形" fill="url(#linearGradient-5)" fill-rule="nonzero" x="1.13686838e-13" y="1178.496" width="1850.75" height="4.67656"></rect>
                            <rect id="矩形" fill="url(#linearGradient-5)" fill-rule="nonzero" x="1.13686838e-13" y="1192.526" width="1850.75" height="4.67656"></rect>
                            <rect id="矩形" fill="url(#linearGradient-5)" fill-rule="nonzero" x="1.13686838e-13" y="1206.556" width="1850.75" height="4.67656"></rect>
                            <rect id="矩形" fill="url(#linearGradient-5)" fill-rule="nonzero" x="1.13686838e-13" y="1220.586" width="1850.75" height="4.67656"></rect>
                            <rect id="矩形" fill="url(#linearGradient-5)" fill-rule="nonzero" x="1.13686838e-13" y="1234.616" width="1850.75" height="4.67656"></rect>
                            <rect id="矩形" fill="url(#linearGradient-5)" fill-rule="nonzero" x="1.13686838e-13" y="1248.646" width="1850.75" height="4.67656"></rect>
                            <rect id="矩形" fill="url(#linearGradient-7)" fill-rule="nonzero" x="1.13686838e-13" y="1262.676" width="1850.75" height="4.67656"></rect>
                        </g>
                        <g transform="translate(0.000000, 0.000000)">
                            <rect id="矩形" fill="url(#linearGradient-8)" fill-rule="nonzero" x="1.13686838e-13" y="1.42108547e-14" width="1850.75" height="4.67656"></rect>
                            <rect id="矩形" fill="url(#linearGradient-9)" fill-rule="nonzero" x="1.13686838e-13" y="14.0292" width="1850.75" height="4.67656"></rect>
                            <rect id="矩形" fill="url(#linearGradient-9)" fill-rule="nonzero" x="1.13686838e-13" y="28.0595" width="1850.75" height="4.67656"></rect>
                            <rect id="矩形" fill="url(#linearGradient-10)" fill-rule="nonzero" x="1.13686838e-13" y="42.0902" width="1850.75" height="4.67656"></rect>
                            <rect id="矩形" fill="url(#linearGradient-4)" fill-rule="nonzero" x="1.13686838e-13" y="56.1182" width="1850.75" height="4.67656"></rect>
                            <rect id="矩形" fill="url(#linearGradient-4)" fill-rule="nonzero" x="1.13686838e-13" y="70.1482" width="1850.75" height="4.67656"></rect>
                            <rect id="矩形" fill="url(#linearGradient-4)" fill-rule="nonzero" x="1.13686838e-13" y="84.1782" width="1850.75" height="4.67656"></rect>
                            <rect id="矩形" fill="url(#linearGradient-4)" fill-rule="nonzero" x="1.13686838e-13" y="98.2082" width="1850.75" height="4.67656"></rect>
                            <rect id="矩形" fill="url(#linearGradient-4)" fill-rule="nonzero" x="1.13686838e-13" y="112.2372" width="1850.75" height="4.67656"></rect>
                            <rect id="矩形" fill="url(#linearGradient-4)" fill-rule="nonzero" x="1.13686838e-13" y="126.2662" width="1850.75" height="4.67656"></rect>
                            <rect id="矩形" fill="url(#linearGradient-4)" fill-rule="nonzero" x="1.13686838e-13" y="140.2972" width="1850.75" height="4.67656"></rect>
                            <rect id="矩形" fill="url(#linearGradient-4)" fill-rule="nonzero" x="1.13686838e-13" y="154.3262" width="1850.75" height="4.67656"></rect>
                            <rect id="矩形" fill="url(#linearGradient-4)" fill-rule="nonzero" x="1.13686838e-13" y="168.3562" width="1850.75" height="4.67656"></rect>
                            <rect id="矩形" fill="url(#linearGradient-4)" fill-rule="nonzero" x="1.13686838e-13" y="182.3862" width="1850.75" height="4.67656"></rect>
                            <rect id="矩形" fill="url(#linearGradient-4)" fill-rule="nonzero" x="1.13686838e-13" y="196.4152" width="1850.75" height="4.67656"></rect>
                            <rect id="矩形" fill="url(#linearGradient-11)" fill-rule="nonzero" x="1.13686838e-13" y="210.4462" width="1850.75" height="4.67656"></rect>
                            <rect id="矩形" fill="url(#linearGradient-4)" fill-rule="nonzero" x="1.13686838e-13" y="224.4752" width="1850.75" height="4.67656"></rect>
                            <rect id="矩形" fill="url(#linearGradient-4)" fill-rule="nonzero" x="1.13686838e-13" y="238.5042" width="1850.75" height="4.67656"></rect>
                            <rect id="矩形" fill="url(#linearGradient-4)" fill-rule="nonzero" x="1.13686838e-13" y="252.5342" width="1850.75" height="4.67656"></rect>
                            <rect id="矩形" fill="url(#linearGradient-4)" fill-rule="nonzero" x="1.13686838e-13" y="266.5642" width="1850.75" height="4.67656"></rect>
                            <rect id="矩形" fill="url(#linearGradient-4)" fill-rule="nonzero" x="1.13686838e-13" y="280.5932" width="1850.75" height="4.67656"></rect>
                            <rect id="矩形" fill="url(#linearGradient-4)" fill-rule="nonzero" x="1.13686838e-13" y="294.6232" width="1850.75" height="4.67656"></rect>
                            <rect id="矩形" fill="url(#linearGradient-4)" fill-rule="nonzero" x="1.13686838e-13" y="308.6532" width="1850.75" height="4.67656"></rect>
                            <rect id="矩形" fill="url(#linearGradient-4)" fill-rule="nonzero" x="1.13686838e-13" y="322.6822" width="1850.75" height="4.67656"></rect>
                            <rect id="矩形" fill="url(#linearGradient-4)" fill-rule="nonzero" x="1.13686838e-13" y="336.7122" width="1850.75" height="4.67656"></rect>
                            <rect id="矩形" fill="url(#linearGradient-4)" fill-rule="nonzero" x="1.13686838e-13" y="350.7422" width="1850.75" height="4.67656"></rect>
                            <rect id="矩形" fill="url(#linearGradient-4)" fill-rule="nonzero" x="1.13686838e-13" y="364.7712" width="1850.75" height="4.67656"></rect>
                            <rect id="矩形" fill="url(#linearGradient-4)" fill-rule="nonzero" x="1.13686838e-13" y="378.8012" width="1850.75" height="4.67656"></rect>
                            <rect id="矩形" fill="url(#linearGradient-4)" fill-rule="nonzero" x="1.13686838e-13" y="392.8302" width="1850.75" height="4.67656"></rect>
                            <rect id="矩形" fill="url(#linearGradient-4)" fill-rule="nonzero" x="1.13686838e-13" y="406.8602" width="1850.75" height="4.67656"></rect>
                            <rect id="矩形" fill="url(#linearGradient-4)" fill-rule="nonzero" x="1.13686838e-13" y="420.8902" width="1850.75" height="4.67656"></rect>
                            <rect id="矩形" fill="url(#linearGradient-4)" fill-rule="nonzero" x="1.13686838e-13" y="434.9202" width="1850.75" height="4.67656"></rect>
                            <rect id="矩形" fill="url(#linearGradient-4)" fill-rule="nonzero" x="1.13686838e-13" y="448.9492" width="1850.75" height="4.67656"></rect>
                            <rect id="矩形" fill="url(#linearGradient-4)" fill-rule="nonzero" x="1.13686838e-13" y="462.9792" width="1850.75" height="4.67656"></rect>
                            <rect id="矩形" fill="url(#linearGradient-11)" fill-rule="nonzero" x="1.13686838e-13" y="477.0092" width="1850.75" height="4.67656"></rect>
                            <rect id="矩形" fill="url(#linearGradient-10)" fill-rule="nonzero" x="1.13686838e-13" y="491.0392" width="1850.75" height="4.67656"></rect>
                            <rect id="矩形" fill="url(#linearGradient-4)" fill-rule="nonzero" x="1.13686838e-13" y="505.0682" width="1850.75" height="4.67656"></rect>
                            <rect id="矩形" fill="url(#linearGradient-4)" fill-rule="nonzero" x="1.13686838e-13" y="519.0982" width="1850.75" height="4.67656"></rect>
                            <rect id="矩形" fill="url(#linearGradient-4)" fill-rule="nonzero" x="1.13686838e-13" y="533.1282" width="1850.75" height="4.67656"></rect>
                            <rect id="矩形" fill="url(#linearGradient-4)" fill-rule="nonzero" x="1.13686838e-13" y="547.1572" width="1850.75" height="4.67656"></rect>
                            <rect id="矩形" fill="url(#linearGradient-11)" fill-rule="nonzero" x="1.13686838e-13" y="561.1872" width="1850.75" height="4.67656"></rect>
                            <rect id="矩形" fill="url(#linearGradient-11)" fill-rule="nonzero" x="1.13686838e-13" y="575.2172" width="1850.75" height="4.67656"></rect>
                            <rect id="矩形" fill="url(#linearGradient-4)" fill-rule="nonzero" x="1.13686838e-13" y="589.2462" width="1850.75" height="4.67656"></rect>
                            <rect id="矩形" fill="url(#linearGradient-4)" fill-rule="nonzero" x="1.13686838e-13" y="603.2762" width="1850.75" height="4.67656"></rect>
                            <rect id="矩形" fill="url(#linearGradient-4)" fill-rule="nonzero" x="1.13686838e-13" y="617.3052" width="1850.75" height="4.67656"></rect>
                            <rect id="矩形" fill="url(#linearGradient-4)" fill-rule="nonzero" x="1.13686838e-13" y="631.3352" width="1850.75" height="4.67656"></rect>
                            <rect id="矩形" fill="url(#linearGradient-4)" fill-rule="nonzero" x="1.13686838e-13" y="645.3642" width="1850.75" height="4.67656"></rect>
                            <rect id="矩形" fill="url(#linearGradient-4)" fill-rule="nonzero" x="1.13686838e-13" y="659.3942" width="1850.75" height="4.67656"></rect>
                            <rect id="矩形" fill="url(#linearGradient-4)" fill-rule="nonzero" x="1.13686838e-13" y="673.4242" width="1850.75" height="4.67656"></rect>
                            <rect id="矩形" fill="url(#linearGradient-4)" fill-rule="nonzero" x="1.13686838e-13" y="687.4542" width="1850.75" height="4.67656"></rect>
                            <rect id="矩形" fill="url(#linearGradient-4)" fill-rule="nonzero" x="1.13686838e-13" y="701.4842" width="1850.75" height="4.67656"></rect>
                            <rect id="矩形" fill="url(#linearGradient-4)" fill-rule="nonzero" x="1.13686838e-13" y="715.5132" width="1850.75" height="4.67656"></rect>
                            <rect id="矩形" fill="url(#linearGradient-4)" fill-rule="nonzero" x="1.13686838e-13" y="729.5432" width="1850.75" height="4.67656"></rect>
                            <rect id="矩形" fill="url(#linearGradient-4)" fill-rule="nonzero" x="1.13686838e-13" y="743.5732" width="1850.75" height="4.67656"></rect>
                            <rect id="矩形" fill="url(#linearGradient-4)" fill-rule="nonzero" x="1.13686838e-13" y="757.6022" width="1850.75" height="4.67656"></rect>
                            <rect id="矩形" fill="url(#linearGradient-4)" fill-rule="nonzero" x="1.13686838e-13" y="771.6322" width="1850.75" height="4.67656"></rect>
                        </g>
                    </g>
                </g>
            </g>
        </g>
    </g>
</svg>