    <svg height="1024" node-id="1" sillyvg="true" template-height="1024" template-width="1024" version="1.1" viewBox="0 0 1024 1024" width="1024" xmlns="http://www.w3.org/2000/svg" xmlns:xlink="http://www.w3.org/1999/xlink"><defs node-id="205"><linearGradient gradientUnits="objectBoundingBox" id="未命名的渐变_459" node-id="5" spreadMethod="pad" x1="549.63" x2="472.72" y1="2467.35" y2="2210.36"><stop offset="0" stop-color="#d8e6ff"/><stop offset="1" stop-color="#88a7ff"/></linearGradient><linearGradient gradientUnits="objectBoundingBox" id="未命名的渐变_459-2" node-id="8" spreadMethod="pad" x1="549.63" x2="472.72" y1="2432.93" y2="2175.94"><stop offset="0" stop-color="#d8e6ff"/><stop offset="1" stop-color="#88a7ff"/></linearGradient><linearGradient gradientUnits="objectBoundingBox" id="未命名的渐变_482" node-id="9" spreadMethod="pad" x1="185.13" x2="833.53" y1="2381.2" y2="2381.2"><stop offset="0" stop-color="#87a7fe"/><stop offset="0.34" stop-color="#97b4ff"/><stop offset="0.68" stop-color="#647ee3"/><stop offset="1" stop-color="#dfebff"/></linearGradient><linearGradient gradientUnits="objectBoundingBox" id="未命名的渐变_470" node-id="14" spreadMethod="pad" x1="183.44" x2="840.01" y1="664.88" y2="664.88"><stop offset="0.01" stop-color="#e3edff"/><stop offset="1" stop-color="#c3dcff"/></linearGradient><linearGradient gradientUnits="objectBoundingBox" id="未命名的渐变_467" node-id="21" spreadMethod="pad" x1="825.25" x2="179.02" y1="360.78" y2="360.78"><stop offset="0" stop-color="#0d52d6"/><stop offset="0.99" stop-color="#7095f7"/></linearGradient><linearGradient gradientUnits="objectBoundingBox" id="未命名的渐变_467-2" node-id="24" spreadMethod="pad" x1="420.45" x2="565.52" y1="2532.33" y2="2914.08"><stop offset="0" stop-color="#0d52d6"/><stop offset="0.99" stop-color="#7095f7"/></linearGradient><linearGradient gradientUnits="objectBoundingBox" id="未命名的渐变_376" node-id="25" spreadMethod="pad" x1="516.15" x2="516.15" y1="2972.92" y2="2483.14"><stop offset="0" stop-color="#ffdc95"/><stop offset="0.27" stop-color="#f18d05"/><stop offset="0.86" stop-color="#ffde97"/><stop offset="1" stop-color="#ee8300"/></linearGradient><linearGradient gradientUnits="objectBoundingBox" id="未命名的渐变_383" node-id="30" spreadMethod="pad" x1="329.95" x2="627.4" y1="194.66" y2="492.11"><stop offset="0" stop-color="#fff6e3"/><stop offset="1" stop-color="#fdbf56"/></linearGradient><linearGradient gradientUnits="objectBoundingBox" id="未命名的渐变_390" node-id="33" spreadMethod="pad" x1="385.49" x2="546.6" y1="2728.27" y2="2728.27"><stop offset="0" stop-color="#ffdc95"/><stop offset="0.44" stop-color="#f18d05"/><stop offset="0.7" stop-color="#ffde97"/><stop offset="1" stop-color="#ee8300"/></linearGradient><linearGradient gradientUnits="objectBoundingBox" id="未命名的渐变_383-2" node-id="38" spreadMethod="pad" x1="319.99" x2="612.4" y1="384.94" y2="384.94"><stop offset="0" stop-color="#fff6e3"/><stop offset="1" stop-color="#fdbf56"/></linearGradient><linearGradient gradientUnits="objectBoundingBox" id="未命名的渐变_452" node-id="39" spreadMethod="pad" x1="319.99" x2="612.4" y1="384.94" y2="384.94"><stop offset="0" stop-color="#ffe2b9"/><stop offset="1" stop-color="#fdbf56"/></linearGradient><linearGradient gradientUnits="objectBoundingBox" id="未命名的渐变_467-3" node-id="42" spreadMethod="pad" x1="650.31" x2="278.49" y1="2741.36" y2="2648.66"><stop offset="0" stop-color="#0d52d6"/><stop offset="0.99" stop-color="#7095f7"/></linearGradient><linearGradient gradientUnits="objectBoundingBox" id="未命名的渐变_459-3" node-id="43" spreadMethod="pad" x1="208.39" x2="751.88" y1="617.45" y2="303.67"><stop offset="0" stop-color="#d8e6ff"/><stop offset="1" stop-color="#88a7ff"/></linearGradient><linearGradient gradientUnits="objectBoundingBox" id="未命名的渐变_452-2" node-id="44" spreadMethod="pad" x1="290.88" x2="236.16" y1="2499.14" y2="2443.31"><stop offset="0" stop-color="#ffe2b9"/><stop offset="1" stop-color="#fdbf56"/></linearGradient><linearGradient gradientUnits="objectBoundingBox" id="未命名的渐变_452-3" node-id="45" spreadMethod="pad" x1="228.06" x2="298.1" y1="640.2" y2="640.2"><stop offset="0" stop-color="#ffe2b9"/><stop offset="1" stop-color="#fdbf56"/></linearGradient><linearGradient gradientUnits="objectBoundingBox" id="未命名的渐变_452-4" node-id="46" spreadMethod="pad" x1="835.29" x2="869.51" y1="2720.66" y2="2685.74"><stop offset="0" stop-color="#ffe2b9"/><stop offset="1" stop-color="#fdbf56"/></linearGradient><linearGradient gradientUnits="objectBoundingBox" id="未命名的渐变_452-5" node-id="47" spreadMethod="pad" x1="830.78" x2="874.57" y1="408.54" y2="408.54"><stop offset="0" stop-color="#ffe2b9"/><stop offset="1" stop-color="#fdbf56"/></linearGradient><linearGradient gradientUnits="objectBoundingBox" id="未命名的渐变_298" node-id="48" spreadMethod="pad" x1="646.08" x2="773.27" y1="2409.32" y2="2460.71"><stop offset="0" stop-color="#e6ab34"/><stop offset="0.34" stop-color="#df932c"/><stop offset="0.74" stop-color="#e7ac35"/><stop offset="1" stop-color="#dd8125"/></linearGradient><linearGradient gradientUnits="objectBoundingBox" id="未命名的渐变_299" node-id="53" spreadMethod="pad" x1="662.2" x2="757.4" y1="2466.99" y2="2425.19"><stop offset="0" stop-color="#e8b133"/><stop offset="1" stop-color="#fbeb72"/></linearGradient><linearGradient gradientUnits="objectBoundingBox" id="未命名的渐变_298-2" node-id="56" spreadMethod="pad" x1="646.08" x2="773.27" y1="2427.01" y2="2478.4"><stop offset="0" stop-color="#e6ab34"/><stop offset="0.34" stop-color="#df932c"/><stop offset="0.74" stop-color="#e7ac35"/><stop offset="1" stop-color="#dd8125"/></linearGradient><linearGradient gradientUnits="objectBoundingBox" id="未命名的渐变_299-2" node-id="57" spreadMethod="pad" x1="661.7" x2="757.89" y1="2484.02" y2="2443.15"><stop offset="0" stop-color="#e8b133"/><stop offset="1" stop-color="#fbeb72"/></linearGradient><linearGradient gradientUnits="objectBoundingBox" id="未命名的渐变_298-3" node-id="58" spreadMethod="pad" x1="646.08" x2="773.27" y1="2445.81" y2="2497.19"><stop offset="0" stop-color="#e6ab34"/><stop offset="0.34" stop-color="#df932c"/><stop offset="0.74" stop-color="#e7ac35"/><stop offset="1" stop-color="#dd8125"/></linearGradient><linearGradient gradientUnits="objectBoundingBox" id="未命名的渐变_299-3" node-id="59" spreadMethod="pad" x1="661.7" x2="757.89" y1="2503.02" y2="2462.15"><stop offset="0" stop-color="#e8b133"/><stop offset="1" stop-color="#fbeb72"/></linearGradient><linearGradient gradientUnits="objectBoundingBox" id="未命名的渐变_298-4" node-id="60" spreadMethod="pad" x1="646.08" x2="773.27" y1="2463.5" y2="2514.88"><stop offset="0" stop-color="#e6ab34"/><stop offset="0.34" stop-color="#df932c"/><stop offset="0.74" stop-color="#e7ac35"/><stop offset="1" stop-color="#dd8125"/></linearGradient><linearGradient gradientUnits="objectBoundingBox" id="未命名的渐变_299-4" node-id="61" spreadMethod="pad" x1="661.7" x2="757.89" y1="2521.02" y2="2480.15"><stop offset="0" stop-color="#e8b133"/><stop offset="1" stop-color="#fbeb72"/></linearGradient><linearGradient gradientUnits="objectBoundingBox" id="未命名的渐变_298-5" node-id="62" spreadMethod="pad" x1="646.08" x2="773.28" y1="2482.29" y2="2533.67"><stop offset="0" stop-color="#e6ab34"/><stop offset="0.34" stop-color="#df932c"/><stop offset="0.74" stop-color="#e7ac35"/><stop offset="1" stop-color="#dd8125"/></linearGradient><linearGradient gradientUnits="objectBoundingBox" id="未命名的渐变_299-5" node-id="63" spreadMethod="pad" x1="662.2" x2="757.4" y1="2539.99" y2="2498.19"><stop offset="0" stop-color="#e8b133"/><stop offset="1" stop-color="#fbeb72"/></linearGradient><linearGradient gradientUnits="objectBoundingBox" id="未命名的渐变_298-6" node-id="64" spreadMethod="pad" x1="646.08" x2="773.27" y1="2501.09" y2="2552.47"><stop offset="0" stop-color="#e6ab34"/><stop offset="0.34" stop-color="#df932c"/><stop offset="0.74" stop-color="#e7ac35"/><stop offset="1" stop-color="#dd8125"/></linearGradient><linearGradient gradientUnits="objectBoundingBox" id="未命名的渐变_299-6" node-id="65" spreadMethod="pad" x1="661.7" x2="757.89" y1="2558.02" y2="2517.15"><stop offset="0" stop-color="#e8b133"/><stop offset="1" stop-color="#fbeb72"/></linearGradient><linearGradient gradientUnits="objectBoundingBox" id="未命名的渐变_310" node-id="66" spreadMethod="pad" x1="-2362.1396" x2="-2405.1199" y1="5357.2295" y2="5493.5396"><stop offset="0" stop-color="#e18400"/><stop offset="0.18" stop-color="#df8b01"/><stop offset="0.48" stop-color="#d5720b"/><stop offset="0.75" stop-color="#e29300"/><stop offset="1" stop-color="#efb13b"/></linearGradient><linearGradient gradientUnits="objectBoundingBox" id="未命名的渐变_100" node-id="72" spreadMethod="pad" x1="-2421.0798" x2="-2375.5198" y1="5391.9097" y2="5483.6094"><stop offset="0" stop-color="#f2d35f"/><stop offset="1" stop-color="#e2a722"/></linearGradient><linearGradient gradientUnits="objectBoundingBox" id="未命名的渐变_310-2" node-id="75" spreadMethod="pad" x1="-3090.74" x2="-3120.15" y1="4510.06" y2="4605.5"><stop offset="0" stop-color="#e18400"/><stop offset="0.18" stop-color="#df8b01"/><stop offset="0.48" stop-color="#d5720b"/><stop offset="0.75" stop-color="#e29300"/><stop offset="1" stop-color="#efb13b"/></linearGradient><linearGradient gradientUnits="objectBoundingBox" id="未命名的渐变_100-2" node-id="76" spreadMethod="pad" x1="-3131.55" x2="-3100.23" y1="4534.14" y2="4598.65"><stop offset="0" stop-color="#f2d35f"/><stop offset="1" stop-color="#e2a722"/></linearGradient><linearGradient gradientUnits="objectBoundingBox" id="未命名的渐变_298-7" node-id="77" spreadMethod="pad" x1="2803.86" x2="2870.88" y1="5476.07" y2="5503.15"><stop offset="0" stop-color="#e6ab34"/><stop offset="0.34" stop-color="#df932c"/><stop offset="0.74" stop-color="#e7ac35"/><stop offset="1" stop-color="#dd8125"/></linearGradient><linearGradient gradientUnits="objectBoundingBox" id="未命名的渐变_299-7" node-id="78" spreadMethod="pad" x1="2805.4" x2="2855.75" y1="5504.78" y2="5482.95"><stop offset="0" stop-color="#e8b133"/><stop offset="1" stop-color="#fbeb72"/></linearGradient><radialGradient cx="17629.16" cy="2690.87" fx="17629.16" fy="2690.87" gradientUnits="objectBoundingBox" id="未命名的渐变_2229" node-id="17" r="1" rev="1" spreadMethod="pad"><stop offset="0" stop-color="#0d1ea7" stop-opacity="0.34"/><stop offset="0.67" stop-color="#0d1bc1" stop-opacity="0.13"/><stop offset="1" stop-color="#0da0d6" stop-opacity="0"/></radialGradient></defs><path d="M 379.01 293.41 L -2.66 293.40 L -2.66 3.40 L 379.01 3.41 Z" fill="#ffffff" fill-rule="nonzero" hidden="true" node-id="478" stroke="none" target-height="290.00394" target-width="381.6733" target-x="-2.6639512" target-y="3.4021208" visibility="hidden"/><g node-id="549"><path d="M 918.40 771.78 C 918.40 803.05 875.55 833.04 799.27 855.15 C 722.99 877.27 619.54 889.69 511.67 889.69 C 403.80 889.69 300.35 877.27 224.07 855.15 C 147.79 833.04 104.94 803.05 104.94 771.78 C 104.94 740.51 147.79 710.52 224.07 688.40 C 300.35 666.29 403.80 653.87 511.67 653.87 C 619.54 653.87 722.99 666.29 799.27 688.40 C 875.55 710.52 918.40 740.51 918.40 771.78 Z" fill="url(#未命名的渐变_459)" fill-opacity="0.2" fill-rule="nonzero" group-id="1" id="椭圆_2" node-id="80" stroke="none" target-height="235.82" target-width="813.4601" target-x="104.93997" target-y="653.87"/></g><g node-id="550"><path d="M 918.40 806.20 C 918.40 837.47 875.55 867.46 799.27 889.57 C 722.99 911.69 619.54 924.11 511.67 924.11 C 403.80 924.11 300.35 911.69 224.07 889.57 C 147.79 867.46 104.94 837.47 104.94 806.20 C 104.94 774.93 147.79 744.94 224.07 722.83 C 300.35 700.71 403.80 688.29 511.67 688.29 C 619.54 688.29 722.99 700.71 799.27 722.83 C 875.55 744.94 918.40 774.93 918.40 806.20 Z" fill="url(#未命名的渐变_459-2)" fill-opacity="0.2" fill-rule="nonzero" group-id="2" id="椭圆_2-2" node-id="81" stroke="none" target-height="235.81989" target-width="813.46" target-x="104.94" target-y="688.29004"/></g><path d="M 917.90 771.78 C 917.90 802.92 875.10 832.78 798.92 854.80 C 722.74 876.82 619.41 889.19 511.67 889.19 C 403.93 889.19 300.60 876.82 224.42 854.80 C 148.24 832.78 105.44 802.92 105.44 771.78 C 105.44 740.64 148.24 710.78 224.42 688.76 C 300.60 666.74 403.93 654.37 511.67 654.37 C 619.41 654.37 722.74 666.74 798.92 688.76 C 875.10 710.78 917.90 740.64 917.90 771.78 Z" fill="none" id="椭圆_2-3" node-id="82" stroke="#0d1ed6" stroke-linecap="butt" stroke-opacity="0" stroke-width="1" target-height="234.82007" target-width="812.4601" target-x="105.43997" target-y="654.37"/><path d="M 527.90 849.23 C 694.61 822.31 225.80 723.49 225.80 723.49 C 225.80 723.49 100.50 713.69 105.36 775.00 C 110.22 836.31 440.56 860.53 527.90 849.23 Z" fill="none" id="路径_4" node-id="83" stroke="#0d1ed6" stroke-linecap="butt" stroke-opacity="0" stroke-width="1" target-height="146.84003" target-width="594.11" target-x="100.5" target-y="713.69"/><g node-id="551"><path d="M 511.67 610.59 C 668.85 610.59 839.93 663.16 839.93 663.16 L 839.93 756.48 C 839.93 809.00 692.93 851.59 511.67 851.59 C 330.41 851.59 183.41 809.00 183.41 756.48 L 183.41 663.85 C 183.41 663.85 355.00 610.59 511.67 610.59 Z" fill="url(#未命名的渐变_482)" fill-rule="nonzero" group-id="3" id="路径_1" node-id="85" stroke="none" target-height="241" target-width="656.51996" target-x="183.41002" target-y="610.59"/><path d="M 839.93 663.16 C 839.93 663.16 668.85 610.59 511.67 610.59 C 355.03 610.59 183.41 663.85 183.41 663.85 L 183.41 756.48 C 183.41 809.00 330.41 851.59 511.67 851.59 C 692.93 851.59 839.93 809.00 839.93 756.48 Z M 838.93 663.90 L 838.93 756.48 C 838.93 756.79 838.93 757.10 838.93 757.42 C 838.72 763.37 836.57 769.26 832.46 775.07 C 828.19 781.07 821.89 786.94 813.58 792.67 C 804.09 798.98 794.01 804.36 783.49 808.73 C 770.45 814.20 757.09 818.88 743.49 822.73 C 713.25 831.49 678.52 838.27 639.31 843.08 C 596.95 848.16 554.32 850.66 511.66 850.55 C 469.00 850.67 426.36 848.19 384.00 843.12 C 344.78 838.31 310.05 831.52 279.82 822.77 C 266.21 818.92 252.86 814.24 239.82 808.77 C 229.30 804.40 219.22 799.02 209.73 792.71 C 201.41 787.01 195.12 781.14 190.85 775.11 C 186.74 769.29 184.59 763.41 184.38 757.46 C 184.38 757.14 184.38 756.83 184.38 756.52 L 184.38 664.59 C 186.10 664.06 188.43 663.37 191.38 662.53 C 198.05 660.59 205.23 658.59 212.94 656.53 C 237.61 649.86 262.97 643.76 289.02 638.23 C 325.44 630.47 360.58 624.37 394.43 619.93 C 436.74 614.39 475.82 611.62 511.68 611.62 C 547.68 611.62 586.84 614.35 629.15 619.82 C 663.03 624.20 698.16 630.22 734.54 637.88 C 760.54 643.35 785.87 649.37 810.54 655.94 C 818.18 657.98 825.33 659.95 832.00 661.86 C 834.89 662.70 837.20 663.38 838.93 663.90 Z" fill="#0d1ed6" fill-opacity="0" fill-rule="evenodd" group-id="3" id="路径_1-2" node-id="86" stroke="none" target-height="241" target-width="656.51996" target-x="183.41002" target-y="610.59"/><path d="M 840.01 664.88 C 840.01 717.39 693.03 759.96 511.73 759.96 C 330.43 759.96 183.45 717.39 183.45 664.88 C 183.45 612.37 330.43 569.80 511.73 569.80 C 693.03 569.80 840.01 612.37 840.01 664.88 Z" fill="url(#未命名的渐变_470)" fill-rule="nonzero" group-id="3" id="椭圆_2-4" node-id="87" stroke="none" target-height="190.16003" target-width="656.55994" target-x="183.44998" target-y="569.8"/><path d="M 839.51 664.88 C 839.51 717.12 692.76 759.46 511.73 759.46 C 330.70 759.46 183.95 717.12 183.95 664.88 C 183.95 612.64 330.70 570.30 511.73 570.30 C 692.76 570.30 839.51 612.64 839.51 664.88 Z" fill="none" group-id="3" id="椭圆_2-5" node-id="88" stroke="#0d1ed6" stroke-linecap="butt" stroke-opacity="0" stroke-width="1" target-height="189.16003" target-width="655.56006" target-x="183.94998" target-y="570.3"/></g><g node-id="552"><path d="M 649.37 688.29 C 649.37 694.23 625.53 699.93 583.11 704.13 C 540.68 708.33 483.13 710.69 423.13 710.69 C 363.13 710.69 305.58 708.33 263.15 704.13 C 220.73 699.93 196.89 694.23 196.89 688.29 C 196.89 682.35 220.73 676.65 263.15 672.45 C 305.58 668.25 363.13 665.89 423.13 665.89 C 483.13 665.89 540.68 668.25 583.11 672.45 C 625.53 676.65 649.37 682.35 649.37 688.29 Z" fill="url(#未命名的渐变_2229)" fill-opacity="0.86" fill-rule="nonzero" group-id="4" id="椭圆_734" node-id="89" stroke="none" target-height="44.80005" target-width="452.4801" target-x="196.88995" target-y="665.88995"/></g><g node-id="553"><path d="M 648.87 688.29 C 648.87 694.10 625.09 699.67 582.75 703.78 C 540.42 707.88 483.00 710.19 423.13 710.19 C 363.26 710.19 305.84 707.88 263.51 703.78 C 221.17 699.67 197.39 694.10 197.39 688.29 C 197.39 682.48 221.17 676.91 263.51 672.80 C 305.84 668.70 363.26 666.39 423.13 666.39 C 483.00 666.39 540.42 668.70 582.75 672.80 C 625.09 676.91 648.87 682.48 648.87 688.29 Z" fill="none" group-id="5" id="椭圆_734-2" node-id="90" stroke="#0d1ed6" stroke-linecap="butt" stroke-opacity="0" stroke-width="1" target-height="43.80011" target-width="451.4801" target-x="197.38995" target-y="666.38995"/></g><path d="M 825.25 278.53 C 825.25 278.53 626.79 295.00 568.60 303.43 C 510.41 311.86 377.40 366.62 330.85 380.84 C 284.30 395.06 217.10 430.43 195.21 446.84 C 173.32 463.25 178.21 437.42 183.63 433.12 C 189.05 428.82 245.42 396.45 283.68 380.12 C 321.94 363.79 340.68 359.97 340.68 359.97 C 340.68 359.97 478.24 309.89 534.68 296.97 C 591.12 284.05 657.98 283.14 681.81 279.61 C 705.64 276.08 805.69 269.31 805.69 269.31 Z" fill="url(#未命名的渐变_467)" fill-rule="nonzero" id="路径_152" node-id="91" stroke="none" target-height="193.93997" target-width="651.93005" target-x="173.32" target-y="269.31"/><path d="M 568.60 303.43 C 510.42 311.83 377.40 366.62 330.85 380.84 C 284.30 395.06 217.10 430.43 195.21 446.84 C 173.32 463.25 178.21 437.42 183.63 433.12 C 189.05 428.82 245.42 396.45 283.68 380.12 C 321.94 363.79 340.68 359.97 340.68 359.97 C 340.68 359.97 478.24 309.89 534.68 296.97 C 591.12 284.05 657.98 283.14 681.81 279.61 C 705.64 276.08 805.69 269.31 805.69 269.31 L 825.16 278.52 C 825.16 278.52 626.79 295.00 568.60 303.43 Z" fill="none" id="路径_152-2" node-id="92" stroke="#0d1ed6" stroke-linecap="butt" stroke-opacity="0" stroke-width="1" target-height="193.93997" target-width="651.84" target-x="173.32" target-y="269.31"/><path d="M 209.91 489.72 C 209.91 489.72 241.99 464.12 278.77 445.88 C 315.55 427.64 333.21 421.75 333.21 421.75 C 333.21 421.75 394.36 392.21 487.85 368.34 C 581.34 344.47 636.59 335.00 679.00 328.47 C 721.41 321.94 826.00 310.68 826.00 310.68 L 826.00 279.00 C 826.00 279.00 779.60 280.14 736.82 284.89 C 694.04 289.64 684.53 290.55 653.75 293.72 C 622.97 296.89 517.19 321.10 443.10 341.49 C 369.01 361.88 335.18 373.81 304.85 388.73 C 274.52 403.65 223.60 425.22 195.06 446.13 C 191.12 449.01 187.06 451.02 183.64 453.66 C 163.41 469.09 156.07 477.66 156.07 477.66 L 190.50 499.73 Z" fill="url(#未命名的渐变_467-2)" fill-rule="nonzero" id="路径_153" node-id="93" stroke="none" target-height="220.73001" target-width="669.93" target-x="156.07" target-y="279"/><path d="M 278.77 445.88 C 315.55 427.63 333.21 421.75 333.21 421.75 C 333.21 421.75 394.36 392.21 487.85 368.34 C 581.34 344.47 636.59 335.00 679.00 328.47 C 721.41 321.94 826.00 310.68 826.00 310.68 L 826.00 279.00 C 826.00 279.00 779.60 280.14 736.82 284.89 C 694.04 289.64 684.53 290.55 653.75 293.72 C 622.97 296.89 517.19 321.10 443.10 341.49 C 369.01 361.88 335.18 373.81 304.85 388.73 C 274.52 403.65 223.60 425.22 195.06 446.13 C 191.12 449.01 187.06 451.02 183.64 453.66 C 163.41 469.09 156.07 477.66 156.07 477.66 L 190.50 499.73 L 209.91 489.73 C 209.91 489.73 242.00 464.12 278.77 445.88 Z" fill="none" id="路径_153-2" node-id="94" stroke="#0d1ed6" stroke-linecap="butt" stroke-opacity="0" stroke-width="1" target-height="220.73001" target-width="669.93" target-x="156.07" target-y="279"/><g node-id="554"><path d="M 303.47 170.76 C 309.66 169.54 374.02 152.53 408.53 138.36 C 443.04 124.19 469.84 111.90 480.39 105.75 C 490.94 99.60 513.19 94.52 535.39 108.69 C 557.59 122.86 608.39 144.25 633.77 151.46 C 659.15 158.67 723.03 171.78 723.03 171.78 C 723.03 171.78 702.63 366.48 697.61 395.26 C 692.59 424.04 685.12 502.74 645.00 546.20 C 604.88 589.66 569.22 623.13 459.00 673.06 C 410.71 646.00 330.51 566.75 301.69 499.80 C 272.87 432.85 278.25 368.94 279.13 342.62 C 280.01 316.30 291.41 190.45 292.07 182.00 C 292.73 173.55 297.28 172.00 303.47 170.76 Z" fill="#ffe9c5" fill-opacity="0.35" fill-rule="nonzero" group-id="6" id="路径_156" node-id="95" stroke="none" target-height="578.54004" target-width="450.16003" target-x="272.87" target-y="94.51999"/></g><path d="M 408.53 138.36 C 443.03 124.19 469.84 111.90 480.39 105.75 C 490.94 99.60 513.19 94.52 535.39 108.69 C 557.59 122.86 608.39 144.25 633.77 151.46 C 659.15 158.67 723.03 171.78 723.03 171.78 C 723.03 171.78 702.63 366.48 697.61 395.26 C 692.59 424.04 685.12 502.74 645.00 546.20 C 604.88 589.66 569.22 623.13 459.00 673.06 C 410.71 646.00 330.51 566.75 301.69 499.80 C 272.87 432.85 278.25 368.94 279.13 342.62 C 280.01 316.30 291.41 190.45 292.07 182.00 C 292.73 173.55 297.28 171.95 303.47 170.74 C 309.66 169.53 374.00 152.53 408.53 138.36 Z" fill="none" id="路径_156-2" node-id="96" stroke="#f2d172" stroke-linecap="butt" stroke-width="2" target-height="578.54004" target-width="450.16003" target-x="272.87" target-y="94.51999"/><path d="M 359.66 203.79 C 364.57 202.79 415.66 188.36 443.05 176.36 C 470.44 164.36 486.12 139.36 486.12 139.36 C 486.12 139.36 527.38 140.23 539.22 148.42 C 551.06 156.61 601.72 181.34 621.87 187.42 C 642.02 193.50 692.72 204.62 692.72 204.62 C 692.72 204.62 676.52 369.48 672.54 393.85 C 668.56 418.22 662.60 484.85 630.77 521.65 C 598.94 558.45 570.60 586.80 483.07 629.07 C 482.88 629.58 447.57 624.14 447.57 624.14 C 447.57 624.14 377.57 530.14 358.25 482.36 C 335.38 425.67 339.64 371.57 340.34 349.28 C 341.04 326.99 350.09 220.43 350.61 213.28 C 351.13 206.13 354.74 204.82 359.66 203.79 Z" fill="url(#未命名的渐变_376)" fill-rule="nonzero" id="路径_157" node-id="97" stroke="none" target-height="490.22003" target-width="357.33997" target-x="335.38" target-y="139.36"/><path d="M 443.05 176.36 C 470.44 164.36 486.12 139.36 486.12 139.36 C 486.12 139.36 527.38 140.23 539.22 148.42 C 551.06 156.61 601.72 181.34 621.87 187.42 C 642.02 193.50 692.72 204.62 692.72 204.62 C 692.72 204.62 676.52 369.48 672.54 393.85 C 668.56 418.22 662.60 484.85 630.77 521.65 C 598.94 558.45 570.60 586.80 483.07 629.07 C 482.88 629.58 447.57 624.14 447.57 624.14 C 447.57 624.14 377.57 530.14 358.25 482.36 C 335.38 425.67 339.64 371.57 340.34 349.28 C 341.04 326.99 350.09 220.43 350.61 213.28 C 351.13 206.13 354.74 204.77 359.66 203.74 C 364.58 202.71 415.66 188.36 443.05 176.36 Z" fill="none" id="路径_157-2" node-id="98" stroke="#0d1ed6" stroke-linecap="butt" stroke-opacity="0" stroke-width="1" target-height="490.22003" target-width="357.33997" target-x="335.38" target-y="139.36"/><path d="M 323.66 199.13 C 328.57 198.13 379.66 183.70 407.05 171.70 C 434.44 159.70 455.71 149.29 464.05 144.09 C 472.39 138.89 490.05 134.58 507.74 146.58 C 525.43 158.58 565.68 176.69 585.83 182.80 C 605.98 188.91 656.72 200.00 656.72 200.00 C 656.72 200.00 640.52 364.86 636.54 389.22 C 632.56 413.58 626.60 480.22 594.77 517.03 C 562.94 553.84 534.60 582.18 447.07 624.45 C 408.78 601.57 345.13 534.45 322.25 477.74 C 299.37 421.03 303.64 366.94 304.34 344.66 C 305.04 322.38 314.09 215.81 314.61 208.66 C 315.13 201.51 318.74 200.16 323.66 199.13 Z" fill="url(#未命名的渐变_383)" fill-rule="nonzero" id="路径_158" node-id="99" stroke="none" target-height="489.87" target-width="357.34998" target-x="299.37" target-y="134.58"/><path d="M 407.05 171.70 C 434.44 159.70 455.71 149.29 464.05 144.09 C 472.39 138.89 490.05 134.58 507.74 146.58 C 525.43 158.58 565.68 176.69 585.83 182.80 C 605.98 188.91 656.72 200.00 656.72 200.00 C 656.72 200.00 640.52 364.86 636.54 389.22 C 632.56 413.58 626.60 480.22 594.77 517.03 C 562.94 553.84 534.60 582.18 447.07 624.45 C 408.78 601.57 345.13 534.45 322.25 477.74 C 299.37 421.03 303.64 366.94 304.34 344.66 C 305.04 322.38 314.09 215.81 314.61 208.66 C 315.13 201.51 318.74 200.15 323.66 199.12 C 328.58 198.09 379.66 183.70 407.05 171.70 Z" fill="none" id="路径_158-2" node-id="100" stroke="#fff0ca" stroke-linecap="butt" stroke-width="2" target-height="489.87" target-width="357.34998" target-x="299.37" target-y="134.58"/><path d="M 349.89 232.92 C 353.96 232.07 396.26 220.21 418.94 210.33 C 433.94 203.79 448.38 196.02 462.09 187.08 C 469.03 182.80 487.73 179.76 502.35 189.64 C 516.97 199.52 550.35 214.44 567.01 219.47 C 583.67 224.50 625.67 233.63 625.67 233.63 C 625.67 233.63 612.26 369.40 609.00 389.46 C 605.74 409.52 600.76 464.40 574.41 494.71 C 548.06 525.02 525.41 548.13 454.04 584.93 C 453.48 585.03 439.04 584.93 439.04 584.93 C 439.04 584.93 365.88 504.47 348.79 462.36 C 329.85 415.67 333.39 371.11 333.96 352.76 C 334.53 334.41 342.04 246.65 342.47 240.76 C 342.90 234.87 345.82 233.77 349.89 232.92 Z" fill="url(#未命名的渐变_390)" fill-rule="nonzero" id="路径_159" node-id="101" stroke="none" target-height="405.27005" target-width="295.81998" target-x="329.85" target-y="179.75998"/><path d="M 418.94 210.33 C 433.94 203.79 448.38 196.02 462.09 187.08 C 469.03 182.80 487.73 179.76 502.35 189.64 C 516.97 199.52 550.35 214.44 567.01 219.47 C 583.67 224.50 625.67 233.63 625.67 233.63 C 625.67 233.63 612.26 369.40 609.00 389.46 C 605.74 409.52 600.76 464.40 574.41 494.71 C 548.06 525.02 525.41 548.13 454.04 584.93 C 453.48 585.03 439.04 584.93 439.04 584.93 C 439.04 584.93 365.88 504.47 348.79 462.36 C 329.85 415.67 333.39 371.11 333.96 352.76 C 334.53 334.41 342.04 246.65 342.47 240.76 C 342.90 234.87 345.89 233.76 349.96 232.90 C 354.03 232.04 396.26 220.21 418.94 210.33 Z" fill="none" id="路径_159-2" node-id="102" stroke="#0d1ed6" stroke-linecap="butt" stroke-opacity="0" stroke-width="1" target-height="405.27005" target-width="295.81998" target-x="329.85" target-y="179.75998"/><path d="M 336.61 234.64 C 340.68 233.79 382.99 221.93 405.66 212.05 C 428.33 202.17 446.00 193.60 452.90 189.31 C 459.80 185.02 474.45 181.48 489.07 191.36 C 503.69 201.24 537.07 216.16 553.73 221.19 C 570.39 226.22 612.40 235.35 612.40 235.35 C 612.40 235.35 599.00 371.12 595.69 391.18 C 592.38 411.24 587.46 466.12 561.10 496.43 C 534.74 526.74 511.28 550.08 438.80 584.89 C 407.10 566.05 354.39 510.76 335.45 464.08 C 316.51 417.40 320.00 372.83 320.62 354.48 C 321.24 336.13 328.69 248.37 329.12 242.48 C 329.55 236.59 332.54 235.49 336.61 234.64 Z" fill="url(#未命名的渐变_383-2)" fill-opacity="0" fill-rule="nonzero" id="路径_166" node-id="103" stroke="#fff4d7" stroke-linecap="butt" stroke-width="2" target-height="403.41003" target-width="295.89" target-x="316.51" target-y="181.48"/><path d="M 405.66 212.05 C 428.34 202.17 445.96 193.60 452.90 189.31 C 459.84 185.02 474.45 181.48 489.07 191.36 C 503.69 201.24 537.07 216.16 553.73 221.19 C 570.39 226.22 612.40 235.35 612.40 235.35 C 612.40 235.35 599.00 371.12 595.69 391.18 C 592.38 411.24 587.46 466.12 561.10 496.43 C 534.74 526.74 511.28 550.08 438.80 584.89 C 407.10 566.05 354.39 510.76 335.45 464.08 C 316.51 417.40 320.00 372.83 320.62 354.48 C 321.24 336.13 328.69 248.37 329.12 242.48 C 329.55 236.59 332.54 235.48 336.61 234.62 C 340.68 233.76 383.00 221.93 405.66 212.05 Z" fill="url(#未命名的渐变_452)" fill-rule="nonzero" id="路径_166-2" node-id="104" stroke="#fff4d7" stroke-linecap="butt" stroke-opacity="0" stroke-width="1" target-height="403.41003" target-width="295.89" target-x="316.51" target-y="181.48"/><path d="M 399.24 335.78 L 385.66 334.91 L 373.66 384.63 L 441.00 436.89 L 454.00 439.27 L 577.50 319.47 L 541.23 283.69 L 527.94 283.69 L 446.38 380.21 Z" fill="#f88901" fill-rule="nonzero" id="路径_161" node-id="105" stroke="none" target-height="155.57999" target-width="203.84" target-x="373.66" target-y="283.69"/><path d="M 385.66 334.91 L 373.66 384.63 L 441.00 436.89 L 454.00 439.27 L 577.50 319.47 L 541.23 283.69 L 527.94 283.69 L 446.38 380.21 L 399.24 335.78 Z" fill="none" id="路径_161-2" node-id="106" stroke="#0d1ed6" stroke-linecap="butt" stroke-opacity="0" stroke-width="1" target-height="155.57999" target-width="203.84" target-x="373.66" target-y="283.69"/><path d="M 385.60 335.00 C 385.30 335.88 364.70 387.67 364.70 387.67 L 440.62 436.51 L 563.33 320.00 C 563.33 320.00 529.19 282.92 528.02 283.80 C 526.85 284.68 437.38 383.26 437.38 383.26 Z" fill="#fff3e2" fill-rule="nonzero" id="路径_162" node-id="107" stroke="none" target-height="153.59" target-width="198.63" target-x="364.7" target-y="282.92"/><path d="M 364.70 387.63 L 440.62 436.47 L 563.33 320.00 C 563.33 320.00 529.19 282.92 528.02 283.80 C 526.85 284.68 437.38 383.26 437.38 383.26 L 385.60 335.00 C 385.30 335.84 364.70 387.63 364.70 387.63 Z" fill="#fff3e2" fill-rule="nonzero" id="路径_162-2" node-id="108" stroke="none" target-height="153.54999" target-width="198.63" target-x="364.7" target-y="282.92"/><g node-id="555"><path d="M 184.58 432.51 C 184.58 432.51 163.48 446.51 151.64 461.14 C 139.80 475.77 138.40 487.61 145.72 494.05 C 153.04 500.49 166.90 509.27 191.97 509.45 C 217.04 509.63 307.62 504.74 307.62 504.74 L 446.80 476.20 L 643.39 401.00 L 701.92 376.52 L 684.10 351.52 L 667.40 346.16 L 672.40 363.26 C 672.40 363.26 623.06 387.62 570.68 405.00 C 518.30 422.38 412.37 457.09 355.28 468.27 C 298.19 479.45 247.28 488.85 210.66 489.02 C 174.04 489.19 166.26 484.14 168.18 473.02 C 170.10 461.90 196.91 444.81 196.91 444.81 Z" fill="url(#未命名的渐变_467-3)" fill-rule="nonzero" group-id="7" id="路径_154" node-id="110" stroke="none" target-height="163.47" target-width="563.52" target-x="138.4" target-y="346.16"/><path d="M 151.64 461.14 C 139.80 475.77 138.40 487.61 145.72 494.05 C 153.04 500.49 166.90 509.27 191.97 509.45 C 217.04 509.63 307.62 504.74 307.62 504.74 L 446.80 476.20 L 643.39 401.00 L 701.92 376.52 L 684.10 351.52 L 667.40 346.16 L 672.40 363.26 C 672.40 363.26 623.06 387.62 570.68 405.00 C 518.30 422.38 412.37 457.09 355.28 468.27 C 298.19 479.45 247.28 488.85 210.66 489.02 C 174.04 489.19 166.26 484.14 168.18 473.02 C 170.10 461.90 196.91 444.81 196.91 444.81 L 184.58 432.55 C 184.58 432.55 163.48 446.51 151.64 461.14 Z" fill="none" group-id="7" id="路径_154-2" node-id="111" stroke="#0d1ed6" stroke-linecap="butt" stroke-opacity="0" stroke-width="1" target-height="163.47" target-width="563.52" target-x="138.4" target-y="346.16"/><path d="M 141.31 488.15 C 142.24 493.86 157.84 549.94 160.31 555.15 C 162.78 560.36 188.60 569.63 209.88 570.54 C 231.16 571.45 291.59 570.54 338.88 561.94 C 386.17 553.34 523.24 523.42 608.54 497.41 C 693.84 471.40 716.07 463.00 716.07 463.00 L 725.25 487.10 L 799.09 387.89 L 683.65 351.89 L 689.54 372.94 C 689.54 372.94 602.46 409.40 546.00 428.53 C 489.54 447.66 430.00 465.90 388.54 476.20 C 347.08 486.50 263.63 505.57 214.19 504.68 C 164.75 503.79 150.19 502.39 141.31 488.15 Z" fill="url(#未命名的渐变_459-3)" fill-rule="nonzero" group-id="7" id="路径_155" node-id="112" stroke="none" target-height="219.56" target-width="657.78" target-x="141.31" target-y="351.89"/><path d="M 160.33 555.15 C 162.82 560.35 188.62 569.63 209.90 570.54 C 231.18 571.45 291.61 570.54 338.90 561.94 C 386.19 553.34 523.26 523.42 608.56 497.41 C 693.86 471.40 716.07 463.00 716.07 463.00 L 725.25 487.10 L 799.09 387.89 L 683.65 351.89 L 689.54 372.94 C 689.54 372.94 602.46 409.40 546.00 428.53 C 489.54 447.66 430.00 465.90 388.54 476.20 C 347.08 486.50 263.63 505.57 214.19 504.68 C 164.75 503.79 150.19 502.39 141.31 488.15 C 142.24 493.86 157.84 549.94 160.33 555.15 Z" fill="none" group-id="7" id="路径_155-2" node-id="113" stroke="#0d1ed6" stroke-linecap="butt" stroke-opacity="0" stroke-width="1" target-height="219.56" target-width="657.78" target-x="141.31" target-y="351.89"/></g><path d="M 277.20 601.82 C 278.38 600.94 298.10 614.47 298.10 619.18 C 296.63 624.77 277.50 661.85 244.25 678.62 C 242.34 678.07 228.58 659.62 228.06 657.53 C 229.11 655.61 269.50 625.49 277.20 601.82 Z" fill="url(#未命名的渐变_452-2)" fill-rule="nonzero" id="路径_167" node-id="114" stroke="#fff4d7" stroke-linecap="butt" stroke-width="1" target-height="77.67999" target-width="70.04001" target-x="228.06" target-y="600.94"/><g node-id="556"><path d="M 298.10 619.18 C 296.63 624.77 277.50 661.85 244.25 678.62 C 242.34 678.07 228.58 659.62 228.06 657.53 C 229.11 655.61 269.50 625.53 277.20 601.82 C 278.38 600.94 298.10 614.47 298.10 619.18 Z" fill="url(#未命名的渐变_452-3)" fill-rule="nonzero" group-id="8" node-id="533" stroke="none" target-height="77.67999" target-width="70.04001" target-x="228.06" target-y="600.94"/><g node-id="562"><path d="M 298.10 619.18 C 296.63 624.77 277.50 661.85 244.25 678.62 C 242.34 678.07 228.58 659.62 228.06 657.53 C 229.11 655.61 269.50 625.53 277.20 601.82 C 278.38 600.94 298.10 614.47 298.10 619.18 Z" fill="none" group-id="8,14" node-id="537" stroke="#fff4d7" stroke-linecap="butt" stroke-opacity="0" stroke-width="1" target-height="77.67999" target-width="70.04001" target-x="228.06" target-y="600.94"/></g></g><path d="M 843.84 384.55 C 843.11 384.00 830.78 392.46 830.78 395.41 C 831.70 398.90 843.66 422.08 864.45 432.57 C 865.64 432.23 874.24 420.69 874.57 419.38 C 873.92 418.18 848.66 399.35 843.84 384.55 Z" fill="url(#未命名的渐变_452-4)" fill-rule="nonzero" id="路径_168" node-id="118" stroke="#fff4d7" stroke-linecap="butt" stroke-width="1" target-height="48.570007" target-width="43.789917" target-x="830.78" target-y="384"/><g node-id="557"><path d="M 830.78 395.41 C 831.70 398.90 843.66 422.08 864.45 432.57 C 865.64 432.23 874.24 420.69 874.57 419.38 C 873.92 418.18 848.66 399.38 843.84 384.55 C 843.11 384.00 830.78 392.46 830.78 395.41 Z" fill="url(#未命名的渐变_452-5)" fill-rule="nonzero" group-id="9" node-id="543" stroke="none" target-height="48.570007" target-width="43.789917" target-x="830.78" target-y="384"/><g node-id="563"><path d="M 830.78 395.41 C 831.70 398.90 843.66 422.08 864.45 432.57 C 865.64 432.23 874.24 420.69 874.57 419.38 C 873.92 418.18 848.66 399.38 843.84 384.55 C 843.11 384.00 830.78 392.46 830.78 395.41 Z" fill="none" group-id="9,15" node-id="547" stroke="#fff4d7" stroke-linecap="butt" stroke-opacity="0" stroke-width="1" target-height="48.570007" target-width="43.789917" target-x="830.78" target-y="384"/></g></g><g node-id="558"><g node-id="564"><path d="M 710.55 654.29 C 740.81 654.29 779.65 665.18 779.65 665.18 L 779.65 679.18 C 779.65 692.92 748.71 704.06 710.55 704.06 C 672.39 704.06 641.45 692.92 641.45 679.18 L 641.45 665.18 C 641.45 665.18 679.91 654.29 710.55 654.29 Z" fill="url(#未命名的渐变_298)" fill-rule="nonzero" group-id="10,16" id="路径_54" node-id="124" stroke="none" target-height="49.76996" target-width="138.20001" target-x="641.45" target-y="654.29"/><path d="M 779.65 665.18 C 779.65 665.18 740.81 654.29 710.55 654.29 C 679.91 654.29 641.45 665.18 641.45 665.18 L 641.45 679.18 C 641.45 692.92 672.39 704.06 710.55 704.06 C 748.71 704.06 779.65 692.92 779.65 679.18 Z M 778.65 665.95 L 778.65 679.17 C 778.65 679.32 778.65 679.47 778.65 679.62 C 778.49 682.53 776.80 685.35 773.58 688.09 C 770.18 690.99 765.35 693.57 759.08 695.82 C 752.01 698.28 744.72 700.04 737.31 701.10 C 719.57 703.70 701.55 703.70 683.81 701.10 C 676.39 700.05 669.08 698.28 662.00 695.82 C 655.74 693.57 650.91 691.00 647.50 688.09 C 644.28 685.35 642.59 682.53 642.43 679.62 C 642.43 679.47 642.43 679.32 642.43 679.17 L 642.43 665.94 C 643.93 665.53 645.84 665.03 648.16 664.45 C 653.59 663.12 659.10 661.87 664.69 660.72 C 682.55 657.10 697.83 655.29 710.53 655.29 C 723.07 655.29 738.30 657.10 756.23 660.72 C 761.84 661.85 767.38 663.09 772.85 664.45 C 775.21 665.00 777.13 665.53 778.65 666.00 Z" fill="#707070" fill-opacity="0" fill-rule="evenodd" group-id="10,16" id="路径_54-2" node-id="125" stroke="none" target-height="49.76996" target-width="138.20001" target-x="641.45" target-y="654.29"/><path d="M 779.45 665.97 C 779.45 678.40 748.56 688.47 710.45 688.47 C 672.34 688.47 641.45 678.40 641.45 665.97 C 641.45 653.54 672.34 643.47 710.45 643.47 C 748.56 643.47 779.45 653.54 779.45 665.97 Z" fill="#fde5a0" fill-rule="nonzero" group-id="10,16" id="椭圆_758" node-id="126" stroke="none" target-height="44.99994" target-width="138" target-x="641.45" target-y="643.47"/><path d="M 778.95 665.97 C 778.95 678.12 748.28 687.97 710.45 687.97 C 672.62 687.97 641.95 678.12 641.95 665.97 C 641.95 653.82 672.62 643.97 710.45 643.97 C 748.28 643.97 778.95 653.82 778.95 665.97 Z" fill="none" group-id="10,16" id="椭圆_758-2" node-id="127" stroke="#707070" stroke-linecap="butt" stroke-opacity="0" stroke-width="1" target-height="44" target-width="137" target-x="641.95" target-y="643.97"/><path d="M 766.45 666.47 C 766.45 674.75 741.38 681.47 710.45 681.47 C 679.52 681.47 654.45 674.75 654.45 666.47 C 654.45 658.19 679.52 651.47 710.45 651.47 C 741.38 651.47 766.45 658.19 766.45 666.47 Z" fill="url(#未命名的渐变_299)" fill-rule="nonzero" group-id="10,16" id="椭圆_759" node-id="128" stroke="none" target-height="30" target-width="112" target-x="654.45" target-y="651.47"/><path d="M 765.95 666.47 C 765.95 674.48 741.10 680.97 710.45 680.97 C 679.80 680.97 654.95 674.48 654.95 666.47 C 654.95 658.46 679.80 651.97 710.45 651.97 C 741.10 651.97 765.95 658.46 765.95 666.47 Z" fill="none" group-id="10,16" id="椭圆_759-2" node-id="129" stroke="#707070" stroke-linecap="butt" stroke-opacity="0" stroke-width="1" target-height="29" target-width="111" target-x="654.95" target-y="651.97"/><path d="M 704.68 659.88 L 702.55 656.25 L 709.33 656.25 L 712.68 662.25 L 721.61 656.25 L 728.00 656.25 L 721.11 662.25 L 730.79 662.25 L 730.79 665.78 L 715.19 665.78 L 713.89 668.02 L 729.51 668.02 L 729.51 671.55 L 712.68 671.55 L 710.36 675.83 L 701.24 675.83 L 704.68 670.43 L 688.32 670.43 L 690.74 666.25 L 706.64 666.25 L 707.57 663.83 L 692.41 663.83 L 695.01 659.93 Z" fill="#ffdc73" fill-rule="nonzero" group-id="10,16" id="路径_55" node-id="130" stroke="none" target-height="19.580017" target-width="42.46997" target-x="688.32" target-y="656.25"/><path d="M 702.55 656.25 L 709.33 656.25 L 712.68 662.25 L 721.61 656.25 L 728.00 656.25 L 721.11 662.25 L 730.79 662.25 L 730.79 665.78 L 715.19 665.78 L 713.89 668.02 L 729.51 668.02 L 729.51 671.55 L 712.68 671.55 L 710.36 675.83 L 701.24 675.83 L 704.68 670.43 L 688.32 670.43 L 690.74 666.25 L 706.64 666.25 L 707.57 663.83 L 692.41 663.83 L 695.01 659.93 L 704.68 659.93 Z" fill="none" group-id="10,16" id="路径_55-2" node-id="131" stroke="#707070" stroke-linecap="butt" stroke-opacity="0" stroke-width="1" target-height="19.580017" target-width="42.46997" target-x="688.32" target-y="656.25"/></g><g node-id="565"><path d="M 710.55 636.60 C 740.81 636.60 779.65 647.49 779.65 647.49 L 779.65 661.49 C 779.65 675.23 748.71 686.37 710.55 686.37 C 672.39 686.37 641.45 675.23 641.45 661.49 L 641.45 647.49 C 641.45 647.49 679.91 636.60 710.55 636.60 Z" fill="url(#未命名的渐变_298-2)" fill-rule="nonzero" group-id="10,17" id="路径_54-3" node-id="133" stroke="none" target-height="49.77002" target-width="138.20001" target-x="641.45" target-y="636.6"/><path d="M 779.65 647.49 C 779.65 647.49 740.81 636.60 710.55 636.60 C 679.91 636.60 641.45 647.49 641.45 647.49 L 641.45 661.49 C 641.45 675.23 672.39 686.37 710.55 686.37 C 748.71 686.37 779.65 675.23 779.65 661.49 Z M 778.65 648.26 L 778.65 661.48 C 778.65 661.63 778.65 661.78 778.65 661.93 C 778.49 664.84 776.80 667.67 773.58 670.40 C 770.18 673.30 765.35 675.88 759.08 678.13 C 752.01 680.59 744.72 682.35 737.31 683.41 C 719.57 686.01 701.55 686.01 683.81 683.41 C 676.39 682.36 669.08 680.59 662.00 678.13 C 655.74 675.88 650.91 673.31 647.50 670.40 C 644.28 667.66 642.59 664.84 642.43 661.93 C 642.43 661.78 642.43 661.63 642.43 661.48 L 642.43 648.25 C 643.93 647.84 645.84 647.34 648.16 646.76 C 653.59 645.43 659.10 644.18 664.69 643.03 C 682.55 639.41 697.83 637.60 710.53 637.60 C 723.07 637.60 738.30 639.41 756.23 643.03 C 761.84 644.16 767.38 645.40 772.85 646.76 C 775.21 647.34 777.13 647.84 778.65 648.26 Z" fill="#707070" fill-opacity="0" fill-rule="evenodd" group-id="10,17" id="路径_54-4" node-id="134" stroke="none" target-height="49.77002" target-width="138.20001" target-x="641.45" target-y="636.6"/><path d="M 779.45 647.97 C 779.45 660.40 748.56 670.47 710.45 670.47 C 672.34 670.47 641.45 660.40 641.45 647.97 C 641.45 635.54 672.34 625.47 710.45 625.47 C 748.56 625.47 779.45 635.54 779.45 647.97 Z" fill="#fde5a0" fill-rule="nonzero" group-id="10,17" id="椭圆_758-3" node-id="135" stroke="none" target-height="45" target-width="138" target-x="641.45" target-y="625.47"/><path d="M 778.95 647.97 C 778.95 660.12 748.28 669.97 710.45 669.97 C 672.62 669.97 641.95 660.12 641.95 647.97 C 641.95 635.82 672.62 625.97 710.45 625.97 C 748.28 625.97 778.95 635.82 778.95 647.97 Z" fill="none" group-id="10,17" id="椭圆_758-4" node-id="136" stroke="#707070" stroke-linecap="butt" stroke-opacity="0" stroke-width="1" target-height="44" target-width="137" target-x="641.95" target-y="625.97"/><path d="M 766.45 648.97 C 766.45 657.53 741.38 664.47 710.45 664.47 C 679.52 664.47 654.45 657.53 654.45 648.97 C 654.45 640.41 679.52 633.47 710.45 633.47 C 741.38 633.47 766.45 640.41 766.45 648.97 Z" fill="url(#未命名的渐变_299-2)" fill-rule="nonzero" group-id="10,17" id="椭圆_759-3" node-id="137" stroke="none" target-height="31" target-width="112" target-x="654.45" target-y="633.47"/><path d="M 765.95 648.97 C 765.95 657.25 741.10 663.97 710.45 663.97 C 679.80 663.97 654.95 657.25 654.95 648.97 C 654.95 640.69 679.80 633.97 710.45 633.97 C 741.10 633.97 765.95 640.69 765.95 648.97 Z" fill="none" group-id="10,17" id="椭圆_759-4" node-id="138" stroke="#707070" stroke-linecap="butt" stroke-opacity="0" stroke-width="1" target-height="30" target-width="111" target-x="654.95" target-y="633.97"/><path d="M 704.68 642.19 L 702.55 638.56 L 709.33 638.56 L 712.68 644.56 L 721.61 638.56 L 728.00 638.56 L 721.11 644.56 L 730.79 644.56 L 730.79 648.10 L 715.19 648.10 L 713.89 650.33 L 729.51 650.33 L 729.51 653.86 L 712.68 653.86 L 710.36 658.14 L 701.24 658.14 L 704.68 652.75 L 688.32 652.75 L 690.74 648.56 L 706.64 648.56 L 707.57 646.14 L 692.41 646.14 L 695.01 642.24 Z" fill="#ffdc73" fill-rule="nonzero" group-id="10,17" id="路径_55-3" node-id="139" stroke="none" target-height="19.580017" target-width="42.46997" target-x="688.32" target-y="638.56"/><path d="M 702.55 638.56 L 709.33 638.56 L 712.68 644.56 L 721.61 638.56 L 728.00 638.56 L 721.11 644.56 L 730.79 644.56 L 730.79 648.10 L 715.19 648.10 L 713.89 650.33 L 729.51 650.33 L 729.51 653.86 L 712.68 653.86 L 710.36 658.14 L 701.24 658.14 L 704.68 652.75 L 688.32 652.75 L 690.74 648.56 L 706.64 648.56 L 707.57 646.14 L 692.41 646.14 L 695.01 642.24 L 704.68 642.24 Z" fill="none" group-id="10,17" id="路径_55-4" node-id="140" stroke="#707070" stroke-linecap="butt" stroke-opacity="0" stroke-width="1" target-height="19.580017" target-width="42.46997" target-x="688.32" target-y="638.56"/></g><g node-id="566"><path d="M 710.55 617.81 C 740.81 617.81 779.65 628.70 779.65 628.70 L 779.65 642.70 C 779.65 656.43 748.71 667.57 710.55 667.57 C 672.39 667.57 641.45 656.43 641.45 642.70 L 641.45 628.70 C 641.45 628.70 679.91 617.81 710.55 617.81 Z" fill="url(#未命名的渐变_298-3)" fill-rule="nonzero" group-id="10,18" id="路径_54-5" node-id="142" stroke="none" target-height="49.76001" target-width="138.20001" target-x="641.45" target-y="617.81"/><path d="M 779.65 628.70 C 779.65 628.70 740.81 617.81 710.55 617.81 C 679.91 617.81 641.45 628.70 641.45 628.70 L 641.45 642.70 C 641.45 656.43 672.39 667.57 710.55 667.57 C 748.71 667.57 779.65 656.43 779.65 642.70 Z M 778.65 629.46 L 778.65 642.69 C 778.65 642.84 778.65 642.99 778.65 643.14 C 778.49 646.05 776.80 648.87 773.58 651.61 C 770.18 654.50 765.35 657.07 759.08 659.33 C 752.01 661.79 744.72 663.56 737.31 664.62 C 719.57 667.21 701.55 667.21 683.81 664.62 C 676.39 663.56 669.08 661.79 662.00 659.33 C 655.74 657.08 650.91 654.51 647.50 651.61 C 644.28 648.87 642.59 646.05 642.43 643.14 C 642.43 642.99 642.43 642.84 642.43 642.69 L 642.43 629.46 C 643.93 629.05 645.84 628.55 648.16 627.97 C 653.59 626.64 659.10 625.39 664.69 624.24 C 682.55 620.62 697.83 618.81 710.53 618.81 C 723.07 618.81 738.30 620.62 756.23 624.24 C 761.84 625.37 767.38 626.61 772.85 627.97 C 775.21 628.55 777.13 629.05 778.65 629.46 Z" fill="#707070" fill-opacity="0" fill-rule="evenodd" group-id="10,18" id="路径_54-6" node-id="143" stroke="none" target-height="49.76001" target-width="138.20001" target-x="641.45" target-y="617.81"/><path d="M 779.45 629.47 C 779.45 642.17 748.56 652.47 710.45 652.47 C 672.34 652.47 641.45 642.17 641.45 629.47 C 641.45 616.77 672.34 606.47 710.45 606.47 C 748.56 606.47 779.45 616.77 779.45 629.47 Z" fill="#fde5a0" fill-rule="nonzero" group-id="10,18" id="椭圆_758-5" node-id="144" stroke="none" target-height="46" target-width="138" target-x="641.45" target-y="606.47"/><path d="M 778.95 629.47 C 778.95 641.90 748.28 651.97 710.45 651.97 C 672.62 651.97 641.95 641.90 641.95 629.47 C 641.95 617.04 672.62 606.97 710.45 606.97 C 748.28 606.97 778.95 617.04 778.95 629.47 Z" fill="none" group-id="10,18" id="椭圆_758-6" node-id="145" stroke="#707070" stroke-linecap="butt" stroke-opacity="0" stroke-width="1" target-height="45" target-width="137" target-x="641.95" target-y="606.97"/><path d="M 766.45 629.97 C 766.45 638.53 741.38 645.47 710.45 645.47 C 679.52 645.47 654.45 638.53 654.45 629.97 C 654.45 621.41 679.52 614.47 710.45 614.47 C 741.38 614.47 766.45 621.41 766.45 629.97 Z" fill="url(#未命名的渐变_299-3)" fill-rule="nonzero" group-id="10,18" id="椭圆_759-5" node-id="146" stroke="none" target-height="31" target-width="112" target-x="654.45" target-y="614.47"/><path d="M 765.95 629.97 C 765.95 638.25 741.10 644.97 710.45 644.97 C 679.80 644.97 654.95 638.25 654.95 629.97 C 654.95 621.69 679.80 614.97 710.45 614.97 C 741.10 614.97 765.95 621.69 765.95 629.97 Z" fill="none" group-id="10,18" id="椭圆_759-6" node-id="147" stroke="#707070" stroke-linecap="butt" stroke-opacity="0" stroke-width="1" target-height="30" target-width="111" target-x="654.95" target-y="614.97"/><path d="M 704.68 623.39 L 702.55 619.77 L 709.33 619.77 L 712.68 625.77 L 721.61 619.77 L 728.00 619.77 L 721.11 625.77 L 730.79 625.77 L 730.79 629.30 L 715.19 629.30 L 713.89 631.53 L 729.51 631.53 L 729.51 635.00 L 712.68 635.00 L 710.36 639.27 L 701.24 639.27 L 704.68 633.88 L 688.32 633.88 L 690.74 629.70 L 706.64 629.70 L 707.57 627.28 L 692.41 627.28 L 695.01 623.37 Z" fill="#ffdc73" fill-rule="nonzero" group-id="10,18" id="路径_55-5" node-id="148" stroke="none" target-height="19.5" target-width="42.46997" target-x="688.32" target-y="619.77"/><path d="M 702.55 619.77 L 709.33 619.77 L 712.68 625.77 L 721.61 619.77 L 728.00 619.77 L 721.11 625.77 L 730.79 625.77 L 730.79 629.30 L 715.19 629.30 L 713.89 631.53 L 729.51 631.53 L 729.51 635.00 L 712.68 635.00 L 710.36 639.27 L 701.24 639.27 L 704.68 633.88 L 688.32 633.88 L 690.74 629.70 L 706.64 629.70 L 707.57 627.28 L 692.41 627.28 L 695.01 623.37 L 704.68 623.37 Z" fill="none" group-id="10,18" id="路径_55-6" node-id="149" stroke="#707070" stroke-linecap="butt" stroke-opacity="0" stroke-width="1" target-height="19.5" target-width="42.46997" target-x="688.32" target-y="619.77"/></g><g node-id="567"><path d="M 710.55 600.12 C 740.81 600.12 779.65 611.01 779.65 611.01 L 779.65 625.01 C 779.65 638.74 748.71 649.88 710.55 649.88 C 672.39 649.88 641.45 638.74 641.45 625.01 L 641.45 611.00 C 641.45 611.00 679.91 600.12 710.55 600.12 Z" fill="url(#未命名的渐变_298-4)" fill-rule="nonzero" group-id="10,19" id="路径_54-7" node-id="151" stroke="none" target-height="49.76001" target-width="138.20001" target-x="641.45" target-y="600.12"/><path d="M 779.65 611.00 C 779.65 611.00 740.81 600.11 710.55 600.11 C 679.91 600.11 641.45 611.00 641.45 611.00 L 641.45 625.00 C 641.45 638.73 672.39 649.87 710.55 649.87 C 748.71 649.87 779.65 638.73 779.65 625.00 Z M 778.65 611.76 L 778.65 625.00 C 778.65 625.15 778.65 625.30 778.65 625.45 C 778.49 628.36 776.80 631.19 773.58 633.92 C 770.18 636.81 765.35 639.38 759.08 641.64 C 752.01 644.10 744.72 645.87 737.31 646.93 C 719.57 649.52 701.55 649.52 683.81 646.93 C 676.39 645.87 669.08 644.10 662.00 641.64 C 655.74 639.39 650.91 636.82 647.50 633.92 C 644.28 631.18 642.59 628.36 642.43 625.45 C 642.43 625.30 642.43 625.15 642.43 625.00 L 642.43 611.77 C 643.93 611.36 645.84 610.86 648.16 610.28 C 653.59 608.95 659.10 607.70 664.69 606.55 C 682.55 602.93 697.83 601.12 710.53 601.12 C 723.07 601.12 738.30 602.93 756.23 606.55 C 761.84 607.68 767.38 608.92 772.85 610.28 C 775.21 610.86 777.13 611.36 778.65 611.77 Z" fill="#707070" fill-opacity="0" fill-rule="evenodd" group-id="10,19" id="路径_54-8" node-id="152" stroke="none" target-height="49.76001" target-width="138.20001" target-x="641.45" target-y="600.11"/><path d="M 779.45 611.97 C 779.45 624.40 748.56 634.47 710.45 634.47 C 672.34 634.47 641.45 624.40 641.45 611.97 C 641.45 599.54 672.34 589.47 710.45 589.47 C 748.56 589.47 779.45 599.54 779.45 611.97 Z" fill="#fde5a0" fill-rule="nonzero" group-id="10,19" id="椭圆_758-7" node-id="153" stroke="none" target-height="45" target-width="138" target-x="641.45" target-y="589.47"/><path d="M 778.95 611.97 C 778.95 624.12 748.28 633.97 710.45 633.97 C 672.62 633.97 641.95 624.12 641.95 611.97 C 641.95 599.82 672.62 589.97 710.45 589.97 C 748.28 589.97 778.95 599.82 778.95 611.97 Z" fill="none" group-id="10,19" id="椭圆_758-8" node-id="154" stroke="#707070" stroke-linecap="butt" stroke-opacity="0" stroke-width="1" target-height="44" target-width="137" target-x="641.95" target-y="589.97"/><path d="M 766.45 611.97 C 766.45 620.53 741.38 627.47 710.45 627.47 C 679.52 627.47 654.45 620.53 654.45 611.97 C 654.45 603.41 679.52 596.47 710.45 596.47 C 741.38 596.47 766.45 603.41 766.45 611.97 Z" fill="url(#未命名的渐变_299-4)" fill-rule="nonzero" group-id="10,19" id="椭圆_759-7" node-id="155" stroke="none" target-height="31" target-width="112" target-x="654.45" target-y="596.47"/><path d="M 765.95 611.97 C 765.95 620.25 741.10 626.97 710.45 626.97 C 679.80 626.97 654.95 620.25 654.95 611.97 C 654.95 603.69 679.80 596.97 710.45 596.97 C 741.10 596.97 765.95 603.69 765.95 611.97 Z" fill="none" group-id="10,19" id="椭圆_759-8" node-id="156" stroke="#707070" stroke-linecap="butt" stroke-opacity="0" stroke-width="1" target-height="30" target-width="111" target-x="654.95" target-y="596.97"/><path d="M 704.68 605.70 L 702.55 602.08 L 709.33 602.08 L 712.68 608.03 L 721.61 602.08 L 728.00 602.08 L 721.14 608.00 L 730.82 608.00 L 730.82 611.53 L 715.19 611.53 L 713.89 613.76 L 729.51 613.76 L 729.51 617.30 L 712.68 617.30 L 710.36 621.57 L 701.24 621.57 L 704.68 616.18 L 688.32 616.18 L 690.74 612.00 L 706.64 612.00 L 707.57 609.58 L 692.41 609.58 L 695.01 605.67 Z" fill="#ffdc73" fill-rule="nonzero" group-id="10,19" id="路径_55-7" node-id="157" stroke="none" target-height="19.48999" target-width="42.5" target-x="688.32" target-y="602.08"/><path d="M 702.55 602.08 L 709.33 602.08 L 712.68 608.03 L 721.61 602.08 L 728.00 602.08 L 721.14 608.00 L 730.82 608.00 L 730.82 611.53 L 715.19 611.53 L 713.89 613.76 L 729.51 613.76 L 729.51 617.30 L 712.68 617.30 L 710.36 621.57 L 701.24 621.57 L 704.68 616.18 L 688.32 616.18 L 690.74 612.00 L 706.64 612.00 L 707.57 609.58 L 692.41 609.58 L 695.01 605.67 L 704.68 605.67 Z" fill="none" group-id="10,19" id="路径_55-8" node-id="158" stroke="#707070" stroke-linecap="butt" stroke-opacity="0" stroke-width="1" target-height="19.48999" target-width="42.5" target-x="688.32" target-y="602.08"/></g><g node-id="568"><path d="M 710.55 581.33 C 740.81 581.33 779.65 592.22 779.65 592.22 L 779.65 606.22 C 779.65 619.96 748.71 631.10 710.55 631.10 C 672.39 631.10 641.45 619.96 641.45 606.22 L 641.45 592.22 C 641.45 592.22 679.91 581.33 710.55 581.33 Z" fill="url(#未命名的渐变_298-5)" fill-rule="nonzero" group-id="10,20" id="路径_54-9" node-id="160" stroke="none" target-height="49.76996" target-width="138.20001" target-x="641.45" target-y="581.33"/><path d="M 779.65 592.22 C 779.65 592.22 740.81 581.33 710.55 581.33 C 679.91 581.33 641.45 592.22 641.45 592.22 L 641.45 606.22 C 641.45 619.96 672.39 631.10 710.55 631.10 C 748.71 631.10 779.65 619.96 779.65 606.22 Z M 778.65 592.98 L 778.65 606.20 C 778.65 606.35 778.65 606.50 778.65 606.65 C 778.49 609.56 776.80 612.38 773.58 615.12 C 770.18 618.02 765.35 620.60 759.08 622.85 C 752.01 625.31 744.72 627.07 737.31 628.13 C 719.57 630.73 701.55 630.73 683.81 628.13 C 676.39 627.08 669.08 625.31 662.00 622.85 C 655.74 620.60 650.91 618.03 647.50 615.12 C 644.28 612.38 642.59 609.56 642.43 606.65 C 642.43 606.50 642.43 606.35 642.43 606.20 L 642.43 593.00 C 643.93 592.59 645.84 592.09 648.16 591.51 C 653.59 590.18 659.10 588.93 664.69 587.78 C 682.55 584.17 697.83 582.37 710.53 582.36 C 723.07 582.36 738.30 584.17 756.23 587.78 C 761.84 588.91 767.38 590.15 772.85 591.51 C 775.21 592.07 777.13 592.57 778.65 593.00 Z" fill="#707070" fill-opacity="0" fill-rule="evenodd" group-id="10,20" id="路径_54-10" node-id="161" stroke="none" target-height="49.76996" target-width="138.20001" target-x="641.45" target-y="581.33"/><path d="M 779.45 592.97 C 779.45 605.40 748.56 615.47 710.45 615.47 C 672.34 615.47 641.45 605.40 641.45 592.97 C 641.45 580.54 672.34 570.47 710.45 570.47 C 748.56 570.47 779.45 580.54 779.45 592.97 Z" fill="#fde5a0" fill-rule="nonzero" group-id="10,20" id="椭圆_758-9" node-id="162" stroke="none" target-height="45" target-width="138" target-x="641.45" target-y="570.47"/><path d="M 778.95 592.97 C 778.95 605.12 748.28 614.97 710.45 614.97 C 672.62 614.97 641.95 605.12 641.95 592.97 C 641.95 580.82 672.62 570.97 710.45 570.97 C 748.28 570.97 778.95 580.82 778.95 592.97 Z" fill="none" group-id="10,20" id="椭圆_758-10" node-id="163" stroke="#707070" stroke-linecap="butt" stroke-opacity="0" stroke-width="1" target-height="44" target-width="137" target-x="641.95" target-y="570.97"/><path d="M 766.45 593.47 C 766.45 601.75 741.38 608.47 710.45 608.47 C 679.52 608.47 654.45 601.75 654.45 593.47 C 654.45 585.19 679.52 578.47 710.45 578.47 C 741.38 578.47 766.45 585.19 766.45 593.47 Z" fill="url(#未命名的渐变_299-5)" fill-rule="nonzero" group-id="10,20" id="椭圆_759-9" node-id="164" stroke="none" target-height="30" target-width="112" target-x="654.45" target-y="578.47"/><path d="M 765.95 593.47 C 765.95 601.48 741.10 607.97 710.45 607.97 C 679.80 607.97 654.95 601.48 654.95 593.47 C 654.95 585.46 679.80 578.97 710.45 578.97 C 741.10 578.97 765.95 585.46 765.95 593.47 Z" fill="none" group-id="10,20" id="椭圆_759-10" node-id="165" stroke="#707070" stroke-linecap="butt" stroke-opacity="0" stroke-width="1" target-height="29" target-width="111" target-x="654.95" target-y="578.97"/><path d="M 704.68 586.91 L 702.55 583.28 L 709.33 583.28 L 712.68 589.28 L 721.61 583.28 L 728.00 583.28 L 721.11 589.28 L 730.79 589.28 L 730.79 592.82 L 715.19 592.82 L 713.89 595.05 L 729.51 595.05 L 729.51 598.58 L 712.68 598.58 L 710.36 602.86 L 701.24 602.86 L 704.68 597.47 L 688.32 597.47 L 690.74 593.28 L 706.64 593.28 L 707.57 590.86 L 692.41 590.86 L 695.01 586.96 Z" fill="#ffdc73" fill-rule="nonzero" group-id="10,20" id="路径_55-9" node-id="166" stroke="none" target-height="19.579956" target-width="42.46997" target-x="688.32" target-y="583.28"/><path d="M 702.55 583.28 L 709.33 583.28 L 712.68 589.28 L 721.61 583.28 L 728.00 583.28 L 721.11 589.28 L 730.79 589.28 L 730.79 592.82 L 715.19 592.82 L 713.89 595.05 L 729.51 595.05 L 729.51 598.58 L 712.68 598.58 L 710.36 602.86 L 701.24 602.86 L 704.68 597.47 L 688.32 597.47 L 690.74 593.28 L 706.64 593.28 L 707.57 590.86 L 692.41 590.86 L 695.01 586.96 L 704.68 586.96 Z" fill="none" group-id="10,20" id="路径_55-10" node-id="167" stroke="#707070" stroke-linecap="butt" stroke-opacity="0" stroke-width="1" target-height="19.579956" target-width="42.46997" target-x="688.32" target-y="583.28"/></g><g node-id="569"><path d="M 710.55 562.53 C 740.81 562.53 779.65 573.42 779.65 573.42 L 779.65 587.42 C 779.65 601.15 748.71 612.29 710.55 612.29 C 672.39 612.29 641.45 601.15 641.45 587.42 L 641.45 573.42 C 641.45 573.42 679.91 562.53 710.55 562.53 Z" fill="url(#未命名的渐变_298-6)" fill-rule="nonzero" group-id="10,21" id="路径_54-11" node-id="169" stroke="none" target-height="49.75995" target-width="138.20001" target-x="641.45" target-y="562.53"/><path d="M 779.65 573.42 C 779.65 573.42 740.81 562.53 710.55 562.53 C 679.91 562.53 641.45 573.42 641.45 573.42 L 641.45 587.42 C 641.45 601.15 672.39 612.29 710.55 612.29 C 748.71 612.29 779.65 601.15 779.65 587.42 Z M 778.65 574.18 L 778.65 587.41 C 778.65 587.56 778.65 587.71 778.65 587.86 C 778.49 590.77 776.80 593.59 773.58 596.33 C 770.18 599.22 765.35 601.79 759.08 604.05 C 752.01 606.51 744.72 608.28 737.31 609.34 C 719.57 611.93 701.55 611.93 683.81 609.34 C 676.39 608.28 669.08 606.51 662.00 604.05 C 655.74 601.80 650.91 599.23 647.50 596.33 C 644.28 593.59 642.59 590.77 642.43 587.86 C 642.43 587.71 642.43 587.56 642.43 587.41 L 642.43 574.18 C 643.93 573.77 645.84 573.28 648.16 572.69 C 653.59 571.36 659.10 570.11 664.69 568.96 C 682.55 565.34 697.83 563.53 710.53 563.53 C 723.07 563.53 738.30 565.34 756.23 568.96 C 761.84 570.09 767.38 571.33 772.85 572.69 C 775.21 573.27 777.13 573.77 778.65 574.18 Z" fill="#707070" fill-opacity="0" fill-rule="evenodd" group-id="10,21" id="路径_54-12" node-id="170" stroke="none" target-height="49.75995" target-width="138.20001" target-x="641.45" target-y="562.53"/><path d="M 779.45 573.97 C 779.45 586.40 748.56 596.47 710.45 596.47 C 672.34 596.47 641.45 586.40 641.45 573.97 C 641.45 561.54 672.34 551.47 710.45 551.47 C 748.56 551.47 779.45 561.54 779.45 573.97 Z" fill="#fde5a0" fill-rule="nonzero" group-id="10,21" id="椭圆_758-11" node-id="171" stroke="none" target-height="45" target-width="138" target-x="641.45" target-y="551.47"/><path d="M 778.95 573.97 C 778.95 586.12 748.28 595.97 710.45 595.97 C 672.62 595.97 641.95 586.12 641.95 573.97 C 641.95 561.82 672.62 551.97 710.45 551.97 C 748.28 551.97 778.95 561.82 778.95 573.97 Z" fill="none" group-id="10,21" id="椭圆_758-12" node-id="172" stroke="#707070" stroke-linecap="butt" stroke-opacity="0" stroke-width="1" target-height="44" target-width="137" target-x="641.95" target-y="551.97"/><path d="M 766.45 574.97 C 766.45 583.53 741.38 590.47 710.45 590.47 C 679.52 590.47 654.45 583.53 654.45 574.97 C 654.45 566.41 679.52 559.47 710.45 559.47 C 741.38 559.47 766.45 566.41 766.45 574.97 Z" fill="url(#未命名的渐变_299-6)" fill-rule="nonzero" group-id="10,21" id="椭圆_759-11" node-id="173" stroke="none" target-height="31" target-width="112" target-x="654.45" target-y="559.47"/><path d="M 765.95 574.97 C 765.95 583.25 741.10 589.97 710.45 589.97 C 679.80 589.97 654.95 583.25 654.95 574.97 C 654.95 566.69 679.80 559.97 710.45 559.97 C 741.10 559.97 765.95 566.69 765.95 574.97 Z" fill="none" group-id="10,21" id="椭圆_759-12" node-id="174" stroke="#707070" stroke-linecap="butt" stroke-opacity="0" stroke-width="1" target-height="30" target-width="111" target-x="654.95" target-y="559.97"/><path d="M 704.68 568.11 L 702.55 564.49 L 709.33 564.49 L 712.68 570.49 L 721.61 564.49 L 728.00 564.49 L 721.11 570.49 L 730.79 570.49 L 730.79 574.00 L 715.19 574.00 L 713.89 576.23 L 729.51 576.23 L 729.51 579.77 L 712.68 579.77 L 710.36 584.00 L 701.24 584.00 L 704.68 578.61 L 688.32 578.61 L 690.74 574.43 L 706.64 574.43 L 707.57 572.01 L 692.41 572.01 L 695.01 568.10 Z" fill="#ffdc73" fill-rule="nonzero" group-id="10,21" id="路径_55-11" node-id="175" stroke="none" target-height="19.51001" target-width="42.46997" target-x="688.32" target-y="564.49"/><path d="M 702.55 564.49 L 709.33 564.49 L 712.68 570.49 L 721.61 564.49 L 728.00 564.49 L 721.11 570.49 L 730.79 570.49 L 730.79 574.00 L 715.19 574.00 L 713.89 576.23 L 729.51 576.23 L 729.51 579.77 L 712.68 579.77 L 710.36 584.00 L 701.24 584.00 L 704.68 578.61 L 688.32 578.61 L 690.74 574.43 L 706.64 574.43 L 707.57 572.01 L 692.41 572.01 L 695.01 568.10 L 704.68 568.10 Z" fill="none" group-id="10,21" id="路径_55-12" node-id="176" stroke="#707070" stroke-linecap="butt" stroke-opacity="0" stroke-width="1" target-height="19.51001" target-width="42.46997" target-x="688.32" target-y="564.49"/></g></g><g node-id="559"><g node-id="570"><path d="M 668.41 627.24 C 691.59 646.69 689.60 687.21 663.97 717.75 C 638.34 748.29 598.78 757.29 575.60 737.84 C 552.43 718.39 554.41 677.87 580.04 647.33 C 605.67 616.79 645.23 607.79 668.41 627.24 Z" fill="url(#未命名的渐变_310)" fill-rule="nonzero" group-id="11,22" id="椭圆_755" node-id="178" stroke="none" target-height="149.49554" target-width="139.15771" target-x="552.42737" target-y="607.79315"/></g><g node-id="571"><path d="M 668.85 622.98 C 691.94 642.16 690.11 682.43 664.77 712.92 C 639.43 743.40 600.17 752.57 577.09 733.38 C 554.01 714.19 555.84 673.93 581.18 643.44 C 606.52 612.95 645.77 603.79 668.85 622.98 Z" fill="none" group-id="11,23" id="椭圆_755-2" node-id="179" stroke="#707070" stroke-linecap="butt" stroke-opacity="0" stroke-width="1.0012492" target-height="148.77448" target-width="137.92944" target-x="554.00745" target-y="603.7906"/></g><g node-id="572"><path d="M 658.92 624.37 C 680.99 642.89 678.48 682.22 653.31 712.21 C 628.15 742.20 589.85 751.50 567.78 732.98 C 545.71 714.46 548.22 675.13 573.38 645.14 C 598.55 615.15 636.84 605.85 658.92 624.37 Z" fill="#ffde74" fill-rule="nonzero" group-id="11,24" id="椭圆_756" node-id="180" stroke="none" target-height="145.6507" target-width="135.27795" target-x="545.7097" target-y="605.84973"/></g><g node-id="573"><path d="M 658.59 624.75 C 680.45 643.10 677.92 682.11 652.93 711.89 C 627.94 741.67 589.96 750.94 568.10 732.60 C 546.24 714.25 548.78 675.24 573.77 645.46 C 598.76 615.68 636.73 606.41 658.59 624.75 Z" fill="none" group-id="11,25" id="椭圆_756-2" node-id="181" stroke="#707070" stroke-linecap="butt" stroke-opacity="0" stroke-width="0.99999994" target-height="144.52966" target-width="134.21228" target-x="546.24255" target-y="606.4103"/></g><g node-id="574"><path d="M 650.02 633.94 C 658.37 640.95 662.50 652.28 661.51 665.45 C 660.52 678.62 654.48 692.54 644.73 704.16 C 634.98 715.78 622.32 724.14 609.52 727.40 C 596.72 730.67 584.85 728.57 576.50 721.57 C 568.16 714.56 564.02 703.23 565.02 690.06 C 566.01 676.89 572.04 662.97 581.79 651.35 C 591.54 639.73 604.21 631.37 617.00 628.10 C 629.80 624.84 641.68 626.94 650.02 633.94 Z" fill="url(#未命名的渐变_100)" fill-rule="nonzero" group-id="11,26" id="椭圆_757" node-id="182" stroke="none" target-height="105.828" target-width="98.47681" target-x="564.0241" target-y="624.84094"/></g><g node-id="575"><path d="M 649.70 634.33 C 657.95 641.25 662.01 652.46 661.01 665.49 C 660.01 678.53 654.01 692.32 644.35 703.84 C 634.68 715.36 622.14 723.65 609.48 726.91 C 596.81 730.16 585.07 728.10 576.82 721.18 C 568.58 714.26 564.51 703.05 565.51 690.02 C 566.52 676.98 572.51 663.19 582.18 651.67 C 591.84 640.15 604.38 631.86 617.05 628.60 C 629.71 625.35 641.46 627.41 649.70 634.33 Z" fill="none" group-id="11,27" id="椭圆_757-2" node-id="183" stroke="#707070" stroke-linecap="butt" stroke-opacity="0" stroke-width="0.99999994" target-height="104.80878" target-width="97.503845" target-x="564.5106" target-y="625.3506"/></g><path d="M 603.45 674.28 L 586.19 667.79 L 582.19 674.08 L 597.27 680.08 L 590.06 689.36 L 596.38 694.23 L 606.73 681.00 L 613.40 686.65 L 602.00 700.68 L 608.53 706.45 L 619.60 692.90 L 629.83 701.53 L 635.32 694.20 L 625.90 686.42 L 637.70 672.26 L 630.89 666.73 L 620.24 680.62 L 613.16 674.72 L 625.16 660.78 L 618.61 654.93 L 610.93 665.00 L 603.62 648.00 L 597.62 656.06 L 605.00 671.94 Z" fill="#ffde76" fill-rule="nonzero" group-id="11" id="路径_53" node-id="184" stroke="none" target-height="58.44995" target-width="55.51001" target-x="582.19" target-y="648"/><path d="M 586.19 667.79 L 582.19 674.08 L 597.27 680.08 L 590.06 689.36 L 596.38 694.23 L 606.73 681.00 L 613.40 686.65 L 602.00 700.68 L 608.53 706.45 L 619.60 692.90 L 629.83 701.53 L 635.32 694.20 L 625.90 686.42 L 637.70 672.26 L 630.89 666.73 L 620.24 680.62 L 613.16 674.72 L 625.16 660.78 L 618.61 654.93 L 610.93 665.00 L 603.62 648.00 L 597.62 656.06 L 605.00 671.94 L 603.46 674.28 Z" fill="none" group-id="11" id="路径_53-2" node-id="185" stroke="#707070" stroke-linecap="butt" stroke-opacity="0" stroke-width="1" target-height="58.44995" target-width="55.51001" target-x="582.19" target-y="648"/></g><g node-id="560"><path d="M 855.70 135.89 C 866.70 154.42 857.29 182.44 834.58 198.48 C 811.87 214.52 784.49 212.48 773.44 193.99 C 762.39 175.50 771.84 147.44 794.56 131.40 C 817.28 115.36 844.64 117.37 855.70 135.89 Z" fill="url(#未命名的渐变_310-2)" fill-rule="nonzero" group-id="12" id="路径_163" node-id="187" stroke="none" target-height="99.16002" target-width="104.31" target-x="762.39" target-y="115.36"/><path d="M 834.58 198.48 C 857.29 182.48 866.75 154.42 855.70 135.89 C 844.65 117.36 817.27 115.35 794.56 131.40 C 771.85 147.45 762.39 175.46 773.44 194.00 C 784.49 212.54 811.86 214.53 834.58 198.48 Z M 844.24 188.70 C 841.16 192.05 837.72 195.07 834.00 197.70 C 828.74 201.46 822.90 204.34 816.71 206.23 C 811.21 207.93 805.45 208.61 799.71 208.23 C 794.63 207.90 789.69 206.46 785.23 204.00 L 784.95 203.85 C 782.66 202.55 780.55 200.95 778.68 199.09 C 776.99 197.39 775.52 195.49 774.30 193.43 C 773.81 192.62 773.36 191.78 772.95 190.92 C 771.13 187.04 770.09 182.83 769.88 178.55 C 769.61 172.94 770.43 167.34 772.28 162.04 C 774.27 156.23 777.19 150.78 780.92 145.90 C 782.17 144.24 783.50 142.66 784.92 141.14 C 788.00 137.79 791.43 134.77 795.15 132.14 C 800.42 128.38 806.26 125.50 812.45 123.61 C 817.95 121.91 823.71 121.23 829.45 121.61 C 834.52 121.92 839.47 123.34 843.93 125.77 L 844.20 125.92 C 846.50 127.21 848.61 128.81 850.47 130.68 C 852.17 132.37 853.64 134.28 854.86 136.34 C 855.35 137.15 855.79 137.99 856.20 138.85 C 858.02 142.73 859.07 146.94 859.27 151.22 C 859.54 156.83 858.73 162.43 856.87 167.73 C 854.88 173.54 851.97 178.99 848.24 183.87 C 847.00 185.59 845.64 187.18 844.24 188.70 Z" fill="#707070" fill-opacity="0" fill-rule="evenodd" group-id="12" id="路径_163-2" node-id="188" stroke="none" target-height="99.180016" target-width="104.359985" target-x="762.39" target-y="115.35"/><path d="M 850.13 131.88 C 860.66 149.53 851.13 176.60 828.80 192.35 C 806.47 208.10 779.89 206.57 769.36 188.93 C 758.83 171.29 768.36 144.21 790.69 128.46 C 813.02 112.71 839.61 114.24 850.13 131.88 Z" fill="#ffde74" fill-rule="nonzero" group-id="12" id="路径_164" node-id="189" stroke="none" target-height="95.39001" target-width="101.829956" target-x="758.83" target-y="112.71"/><path d="M 828.80 192.35 C 851.11 176.60 860.66 149.53 850.13 131.88 C 839.60 114.23 812.99 112.71 790.69 128.46 C 768.39 144.21 758.84 171.28 769.36 188.93 C 779.88 206.58 806.50 208.10 828.80 192.35 Z M 838.94 182.07 C 835.73 185.61 832.14 188.79 828.23 191.54 C 823.06 195.23 817.35 198.09 811.29 200.00 C 805.94 201.72 800.33 202.45 794.72 202.17 C 789.72 201.96 784.84 200.62 780.43 198.25 C 778.12 196.99 776.01 195.40 774.16 193.54 C 772.65 192.00 771.32 190.29 770.22 188.43 C 769.80 187.72 769.41 187.00 769.05 186.26 C 767.26 182.50 766.26 178.42 766.12 174.26 C 765.92 168.85 766.79 163.45 768.66 158.37 C 770.68 152.73 773.58 147.45 777.26 142.73 C 778.26 141.37 779.40 140.06 780.55 138.79 C 783.76 135.25 787.36 132.08 791.27 129.33 C 796.43 125.63 802.15 122.78 808.20 120.87 C 813.55 119.15 819.16 118.42 824.77 118.70 C 829.77 118.91 834.65 120.25 839.06 122.62 C 841.37 123.88 843.48 125.47 845.33 127.33 C 846.84 128.87 848.17 130.59 849.27 132.45 C 849.69 133.15 850.08 133.88 850.44 134.61 C 852.23 138.38 853.23 142.48 853.38 146.66 C 853.57 152.07 852.70 157.46 850.83 162.54 C 848.81 168.18 845.91 173.46 842.23 178.18 C 841.19 179.51 840.09 180.80 838.94 182.07 Z" fill="#707070" fill-opacity="0" fill-rule="evenodd" group-id="12" id="路径_164-2" node-id="190" stroke="none" target-height="95.39001" target-width="101.81995" target-x="758.84" target-y="112.71"/><path d="M 842.46 136.73 C 850.75 150.63 842.88 172.19 824.89 184.90 C 806.90 197.61 785.58 196.65 777.30 182.75 C 769.02 168.85 776.88 147.29 794.87 134.59 C 812.86 121.89 834.17 122.84 842.46 136.73 Z" fill="url(#未命名的渐变_100-2)" fill-rule="nonzero" group-id="12" id="路径_165" node-id="191" stroke="none" target-height="75.72" target-width="81.73004" target-x="769.01996" target-y="121.89"/><path d="M 824.89 184.90 C 842.89 172.19 850.75 150.63 842.46 136.73 C 834.17 122.83 812.87 121.88 794.87 134.59 C 776.87 147.30 769.00 168.86 777.30 182.75 C 785.60 196.64 806.89 197.61 824.89 184.90 Z M 833.38 176.02 C 830.67 179.04 827.63 181.75 824.31 184.08 C 820.16 187.05 815.58 189.37 810.72 190.93 C 806.46 192.33 801.98 192.97 797.50 192.80 C 793.55 192.69 789.68 191.68 786.17 189.86 C 784.29 188.86 782.58 187.59 781.09 186.07 C 779.97 184.91 778.98 183.63 778.15 182.24 C 777.86 181.74 777.58 181.24 777.32 180.71 C 775.88 177.71 775.09 174.44 775.01 171.12 C 774.91 166.84 775.64 162.57 777.17 158.57 C 778.83 154.08 781.20 149.88 784.17 146.13 C 784.88 145.22 785.62 144.33 786.39 143.47 C 789.10 140.44 792.14 137.74 795.46 135.40 C 799.59 132.44 804.16 130.13 809.00 128.56 C 813.26 127.15 817.74 126.52 822.22 126.68 C 826.17 126.79 830.05 127.80 833.55 129.63 C 835.42 130.62 837.13 131.90 838.62 133.41 C 839.75 134.56 840.74 135.85 841.56 137.24 C 841.86 137.74 842.14 138.24 842.40 138.78 C 843.84 141.78 844.62 145.05 844.70 148.37 C 844.81 152.65 844.08 156.92 842.55 160.92 C 840.89 165.41 838.52 169.60 835.55 173.35 C 834.88 174.27 834.15 175.15 833.38 176.00 Z" fill="#707070" fill-opacity="0" fill-rule="evenodd" group-id="12" id="路径_165-2" node-id="192" stroke="none" target-height="75.73001" target-width="81.75" target-x="769" target-y="121.87999"/><path d="M 804.24 155.24 L 794.40 147.05 L 790.54 150.63 L 799.06 158.04 L 792.53 163.04 L 795.64 167.78 L 805.01 160.63 L 808.18 166.00 L 798.00 173.47 L 801.00 178.89 L 810.89 171.71 L 815.75 179.92 L 820.75 175.92 L 816.23 168.48 L 826.78 161.00 L 823.49 155.69 L 813.81 163.20 L 810.43 157.57 L 821.00 150.34 L 818.00 144.85 L 811.00 150.32 L 809.71 136.83 L 804.19 141.22 L 805.77 153.92 Z" fill="#ffde76" fill-rule="nonzero" group-id="12" id="路径_53-3" node-id="193" stroke="none" target-height="43.089996" target-width="36.24005" target-x="790.54" target-y="136.83"/><path d="M 794.40 147.05 L 790.54 150.63 L 799.06 158.04 L 792.53 163.04 L 795.64 167.78 L 805.01 160.63 L 808.18 166.00 L 798.00 173.47 L 801.00 178.89 L 810.89 171.71 L 815.75 179.92 L 820.75 175.92 L 816.23 168.48 L 826.78 161.00 L 823.49 155.69 L 813.81 163.20 L 810.43 157.57 L 821.00 150.34 L 818.00 144.85 L 811.00 150.32 L 809.71 136.83 L 804.19 141.22 L 805.77 153.92 L 804.30 155.24 Z" fill="none" group-id="12" id="路径_53-4" node-id="194" stroke="#707070" stroke-linecap="butt" stroke-opacity="0" stroke-width="1" target-height="43.089996" target-width="36.24005" target-x="790.54" target-y="136.83"/></g><g node-id="561"><path d="M 157.65 339.10 C 168.73 327.63 187.07 316.89 187.07 316.89 L 192.37 322.01 C 197.58 327.01 190.48 342.84 176.51 357.31 C 162.54 371.78 147.00 379.42 141.79 374.40 L 136.49 369.28 C 136.49 369.28 146.43 350.71 157.65 339.10 Z" fill="url(#未命名的渐变_298-7)" fill-rule="nonzero" group-id="13" id="路径_54-13" node-id="196" stroke="none" target-height="62.53" target-width="61.089996" target-x="136.49" target-y="316.89"/><path d="M 187.07 316.89 C 187.07 316.89 168.73 327.63 157.65 339.10 C 146.57 350.57 136.49 369.28 136.49 369.28 L 141.79 374.40 C 147.00 379.40 162.54 371.77 176.51 357.31 C 190.48 342.85 197.58 327.00 192.37 322.00 Z M 186.92 318.14 L 191.68 322.73 L 191.75 322.81 C 192.75 323.81 193.19 325.41 193.06 327.55 C 192.76 330.39 191.97 333.15 190.72 335.71 C 189.08 339.26 187.09 342.65 184.80 345.82 C 182.08 349.64 179.07 353.25 175.80 356.61 C 172.55 360.00 169.05 363.14 165.32 366.00 C 162.23 368.41 158.92 370.51 155.42 372.28 C 152.90 373.62 150.17 374.50 147.35 374.90 C 145.21 375.11 143.62 374.73 142.56 373.76 L 142.48 373.69 L 137.73 369.10 L 137.81 368.95 C 138.20 368.25 138.62 367.50 139.08 366.70 C 140.55 364.15 142.10 361.62 143.71 359.09 C 147.96 352.20 152.87 345.74 158.37 339.80 C 164.10 334.12 170.36 329.00 177.08 324.53 C 180.76 321.98 184.04 319.85 186.92 318.14 Z" fill="#707070" fill-opacity="0" fill-rule="evenodd" group-id="13" id="路径_54-14" node-id="197" stroke="none" target-height="62.50998" target-width="61.089996" target-x="136.49" target-y="316.89"/><g node-id="576"><path d="M 187.32 316.88 C 191.89 321.29 184.24 336.62 170.24 351.12 C 156.23 365.62 141.18 373.80 136.61 369.39 C 132.04 364.98 139.69 349.65 153.69 335.15 C 167.69 320.64 182.75 312.47 187.32 316.88 Z" fill="#fde5a0" fill-rule="nonzero" group-id="13,28" id="椭圆_758-13" node-id="198" stroke="none" target-height="61.335724" target-width="59.847504" target-x="132.04019" target-y="312.46597"/></g><g node-id="577"><path d="M 186.97 317.24 C 191.34 321.46 183.69 336.47 169.88 350.78 C 156.07 365.08 141.33 373.25 136.96 369.03 C 132.59 364.81 140.24 349.79 154.05 335.49 C 167.86 321.19 182.60 313.02 186.97 317.24 Z" fill="none" group-id="13,29" id="椭圆_758-14" node-id="199" stroke="#707070" stroke-linecap="butt" stroke-opacity="0" stroke-width="1" target-height="60.232758" target-width="58.755554" target-x="132.58618" target-y="313.01746"/></g><g node-id="578"><path d="M 182.82 322.27 C 185.99 325.34 179.40 337.33 168.08 349.05 C 156.76 360.77 145.01 367.78 141.83 364.72 C 138.65 361.65 145.25 349.66 156.57 337.94 C 167.89 326.22 179.64 319.21 182.82 322.27 Z" fill="url(#未命名的渐变_299-7)" fill-rule="nonzero" group-id="13,30" id="椭圆_759-13" node-id="200" stroke="none" target-height="48.579407" target-width="47.34131" target-x="138.65231" target-y="319.20526"/></g><g node-id="579"><path d="M 182.47 322.63 C 185.45 325.51 178.84 337.18 167.72 348.70 C 156.59 360.23 145.16 367.23 142.18 364.36 C 139.20 361.48 145.80 349.81 156.93 338.29 C 168.05 326.76 179.49 319.76 182.47 322.63 Z" fill="none" group-id="13,31" id="椭圆_759-14" node-id="201" stroke="#707070" stroke-linecap="butt" stroke-opacity="0" stroke-width="1" target-height="47.4765" target-width="46.24942" target-x="139.19827" target-y="319.7567"/></g><path d="M 157.62 343.36 L 155.46 342.85 L 157.95 340.27 L 161.43 341.18 L 162.43 335.62 L 164.78 333.19 L 164.52 337.98 L 168.06 334.31 L 169.40 335.60 L 163.68 341.52 L 164.05 342.84 L 169.77 336.91 L 171.11 338.21 L 165.00 344.59 L 165.77 347.03 L 162.44 350.49 L 161.65 347.21 L 155.65 353.41 L 154.95 350.97 L 160.77 344.97 L 160.20 343.73 L 154.65 349.48 L 154.12 347.06 Z" fill="#ffdc73" fill-rule="nonzero" group-id="13" id="路径_55-13" node-id="202" stroke="none" target-height="20.220001" target-width="16.990005" target-x="154.12" target-y="333.19"/><path d="M 155.46 342.85 L 157.95 340.27 L 161.43 341.18 L 162.43 335.62 L 164.78 333.19 L 164.52 337.98 L 168.06 334.31 L 169.40 335.60 L 163.68 341.52 L 164.05 342.84 L 169.77 336.91 L 171.11 338.21 L 165.00 344.59 L 165.77 347.03 L 162.44 350.49 L 161.65 347.21 L 155.65 353.41 L 154.95 350.97 L 160.77 344.97 L 160.20 343.73 L 154.65 349.48 L 154.12 347.06 L 157.66 343.39 Z" fill="none" group-id="13" id="路径_55-14" node-id="203" stroke="#707070" stroke-linecap="butt" stroke-opacity="0" stroke-width="1" target-height="20.220001" target-width="16.990005" target-x="154.12" target-y="333.19"/></g></svg>
