<svg width="283.00000000000006" height="89" xmlns="http://www.w3.org/2000/svg" clip-rule="evenodd" version="1.1">

 <g>
  <title>Layer 1</title>
  <g id="svg_3">
   <path id="svg_4" d="m11.44745,-0.11853c14.613,0.0466 28.946,1.3799 43,4c-7.01,-0.1675 -14.01,-0.5009 -21,-1c-4.953,-0.8292 -9.953,-1.1625 -15,-1c-2.333,-0.6667 -4.667,-1.3333 -7,-2z" fill="#fff4e1"/>
  </g>
  <g id="svg_5">
   <path id="svg_6" d="m117.44745,1.88147c-2.333,0 -4.667,0 -7,0c1.869,-0.6646 3.869,-1.3313 6,-2c-1.833,-0.3333 -3.667,-0.6667 -5.5,-1c-18.33,1.3197 -36.497,2.9864 -54.5,5c-0.333,0 -0.667,0 -1,0c0.73,-1.545 2.063,-2.3784 4,-2.5c19.668,-1.574 39.335,-3.074 59,-4.5c0.134,1.7915 -0.199,3.4582 -1,5z" fill="#71c0ee"/>
  </g>
  <g id="svg_7">
   <path id="svg_8" d="m110.44745,1.88147c-1.989,21.975 -2.656,44.308 -2,67c-8.333,0 -16.667,0 -25,0c0.493,-2.306 0.826,-4.639 1,-7c3.846,-10.034 8.179,-19.8672 13,-29.5c-3.667,-0.6667 -7.333,-0.6667 -11,0c-1.541,2.9156 -3.207,5.7489 -5,8.5c-2.551,-2.3937 -4.551,-5.227 -6,-8.5c-3.986,-0.4988 -7.986,-0.6655 -12,-0.5c0,-9.3333 0,-18.6667 0,-28c-2.333,0 -4.667,0 -7,0c18.003,-2.0136 36.17,-3.6803 54.5,-5c1.833,0.3333 3.667,0.6667 5.5,1c-2.131,0.6687 -4.131,1.3354 -6,2z" fill="#53befd"/>
  </g>
  <g fill="#f59e5e" id="svg_9">
   <path id="svg_10" d="m2.44745,0.88147c5.313,0.5978 10.646,0.9312 16,1c5.047,-0.1625 10.047,0.1708 15,1c6.77,1.5747 13.77,2.2414 21,2c-0.331,20.8401 0.003,41.507 1,62c0,0.333 0,0.667 0,1c2.107,0.968 4.441,1.302 7,1c0,1 0,2 0,3c-19.986,-1.879 -39.986,-3.546 -60,-5c0,-22 0,-44 0,-66z" fill="#ff7f00"/>
  </g>
  <g id="svg_11">
   <path id="svg_12" d="m216.44745,1.88147c3.798,-0.9834 7.798,-1.3168 12,-1c0,1 0,2 0,3c-2.333,0 -4.667,0 -7,0c-1.052,-1.756 -2.719,-2.4227 -5,-2z" fill="#aba6c6"/>
  </g>
  <g id="svg_13">
   <path id="svg_14" d="m110.44745,1.88147c2.333,0 4.667,0 7,0c0,0.3333 0,0.6667 0,1c-2,0 -4,0 -6,0c0,23 0,46 0,69c-0.333,0 -0.667,0 -1,0c0,-23.333 0,-46.6667 0,-70z" fill="#a1cb97"/>
  </g>
  <g id="svg_15">
   <path id="svg_16" d="m117.44745,2.88147c0,23 0,46 0,69c-2,0 -4,0 -6,0c0,-23 0,-46 0,-69c2,0 4,0 6,0z" fill="#c3c753"/>
  </g>
  <g id="svg_17">
   <path id="svg_18" d="m119.44745,1.88147c4.816,-1.1497 9.816,-1.3163 15,-0.5c12.51,0.9679 24.843,2.8012 37,5.5c-1.419,0.9511 -3.085,1.2845 -5,1c0.111,-0.6174 0.444,-1.1174 1,-1.5c-16.048,-1.1701 -32.048,-2.6701 -48,-4.5z" fill="#fcf9df"/>
  </g>
  <g id="svg_19">
   <path id="svg_20" d="m208.44745,2.88147c4,0 8,0 12,0c0,23.3333 0,46.667 0,70c-15.299,-1.444 -30.632,-2.777 -46,-4c0,-2.667 0,-5.333 0,-8c8.849,0.326 17.516,-0.007 26,-1c0.333,0 0.667,0 1,0c1.161,-13.494 1.327,-27.1604 0.5,-41c-1.906,-0.6311 -3.906,-0.9644 -6,-1c-2.295,0.0465 -4.129,0.7132 -5.5,2c-0.982,3.4619 -1.315,7.1286 -1,11c-4.532,-0.3182 -8.866,0.0151 -13,1c0,0.6667 -0.333,1 -1,1c-0.722,0.4175 -1.222,1.0842 -1.5,2c-0.667,-8.6667 -0.667,-17.3333 0,-26c5.654,-1.6581 11.487,-2.4915 17.5,-2.5c0.556,-0.3826 0.889,-0.8826 1,-1.5c5.211,-1.3151 10.544,-1.9818 16,-2z" fill="#a783fe"/>
  </g>
  <g id="svg_21">
   <path id="svg_22" d="m11.44745,-0.11853c2.333,0.6667 4.667,1.3333 7,2c-5.354,-0.0688 -10.687,-0.4022 -16,-1c-1.1629,22.1629 -1.3296,44.496 -0.5,67c2.607,0.623 5.107,1.29 7.5,2c-3,0 -6,0 -9,0c0,-23.333 0,-46.6667 0,-70c3.667,0 7.333,0 11,0z" fill="#e5a778"/>
  </g>
  <g id="svg_23">
   <path id="svg_24" d="m33.44745,2.88147c6.99,0.4991 13.99,0.8325 21,1c0.333,0 0.667,0 1,0c0,21 0,42 0,63c-0.997,-20.493 -1.331,-41.1599 -1,-62c-7.23,0.2414 -14.23,-0.4253 -21,-2z" fill="#dea576"/>
  </g>
  <g id="svg_25">
   <path id="svg_26" d="m117.44745,2.88147c3.887,0.1459 7.554,0.8126 11,2c-3,0 -6,0 -9,0c-0.46,12.4337 0.04,24.767 1.5,37c3.133,-7.3156 5.133,-14.9823 6,-23c0.852,-1.0707 1.685,-2.0707 2.5,-3c0,1 0,2 0,3c-2.876,8.3656 -4.876,17.0322 -6,26c-2.087,4.674 -3.421,9.674 -4,15c-0.667,4 -1.333,8 -2,12c0,-23 0,-46 0,-69z" fill="#f1da59"/>
  </g>
  <g id="svg_27">
   <path id="svg_28" d="m128.44745,4.88147c11.923,1.3996 23.923,2.0662 36,2c0,21.3333 0,42.667 0,64c-1.291,-0.237 -2.291,0.096 -3,1c-1.333,0 -2.667,0 -4,0c-15.338,1.334 -30.671,2.667 -46,4c0,-1.333 0,-2.667 0,-4c2,0 4,0 6,0c0.667,-4 1.333,-8 2,-12c0.689,1.207 0.855,2.541 0.5,4c3.411,-0.793 6.911,-1.293 10.5,-1.5c1.35,-1.718 2.517,-3.552 3.5,-5.5c0.379,-6.169 1.213,-12.169 2.5,-18c2,0 4,0 6,0c0.007,5.966 1.007,11.632 3,17c0.845,1.171 1.511,2.505 2,4c3.798,0.983 7.798,1.317 12,1c-2.181,-14.142 -4.848,-28.1422 -8,-42c-0.682,-0.7427 -1.349,-1.4094 -2,-2c-6.479,-0.9907 -13.146,-1.324 -20,-1c-0.815,0.9293 -1.648,1.9293 -2.5,3c-0.867,8.0177 -2.867,15.6844 -6,23c-1.46,-12.233 -1.96,-24.5663 -1.5,-37c3,0 6,0 9,0z" fill="#fbdc53"/>
  </g>
  <g id="svg_29">
   <path id="svg_30" d="m208.44745,2.88147c2.448,-0.9731 5.115,-1.3064 8,-1c2.281,-0.4227 3.948,0.244 5,2c0,23.3333 0,46.667 0,70c-0.333,0 -0.667,0 -1,0c0,-0.333 0,-0.667 0,-1c0,-23.333 0,-46.6667 0,-70c-4,0 -8,0 -12,0z" fill="#a092d5"/>
  </g>
  <g id="svg_31">
   <path id="svg_32" d="m221.44745,3.88147c2.333,0 4.667,0 7,0c0,0.3333 0,0.6667 0,1c-2,0 -4,0 -6,0c0,23 0,46 0,69c-0.333,0 -0.667,0 -1,0c0,-23.333 0,-46.6667 0,-70z" fill="#98b87d"/>
  </g>
  <g id="svg_33">
   <path id="svg_34" d="m228.44745,4.88147c0,23.3333 0,46.667 0,70c-2,0 -4,0 -6,0c0,-0.333 0,-0.667 0,-1c0,-23 0,-46 0,-69c2,0 4,0 6,0z" fill="#8fc64f"/>
  </g>
  <g id="svg_35">
   <path id="svg_36" d="m271.44745,72.88147c-9.681,-0.557 -19.014,0.443 -28,3c-2.928,0.065 -5.595,0.732 -8,2c-1.333,0 -2.667,0 -4,0c-3,0 -6,0 -9,0c0,-1 0,-2 0,-3c2,0 4,0 6,0c0.998,-23.161 1.331,-46.494 1,-70c16.838,1.2666 33.505,2.9332 50,5c1,20.3224 1.333,40.656 1,61c-2.687,-0.164 -5.354,0.003 -8,0.5c-0.556,0.383 -0.889,0.883 -1,1.5z" fill="#abeb54"/>
  </g>
  <g id="svg_37">
   <path id="svg_38" d="m55.44745,3.88147c0.333,0 0.667,0 1,0c0,21 0,42 0,63c2.333,0 4.667,0 7,0c0,0.333 0,0.667 0,1c-2.667,0 -5.333,0 -8,0c0,-0.333 0,-0.667 0,-1c0,-21 0,-42 0,-63z" fill="#75949e"/>
  </g>
  <g id="svg_39">
   <path id="svg_40" d="m56.44745,3.88147c2.333,0 4.667,0 7,0c0,9.3333 0,18.6667 0,28c0,0.3333 0,0.6667 0,1c0,11.333 0,22.667 0,34c-2.333,0 -4.667,0 -7,0c0,-21 0,-42 0,-63z" fill="#509fc7"/>
  </g>
  <g id="svg_41">
   <path id="svg_42" d="m117.44745,2.88147c0,-0.3333 0,-0.6667 0,-1c0.667,0 1.333,0 2,0c15.952,1.8299 31.952,3.3299 48,4.5c-0.556,0.3826 -0.889,0.8826 -1,1.5c-1.333,20.6667 -1.333,41.333 0,62c0.418,0.722 1.084,1.222 2,1.5c-2.31,0.497 -4.643,0.663 -7,0.5c0.709,-0.904 1.709,-1.237 3,-1c0,-21.333 0,-42.6667 0,-64c-12.077,0.0662 -24.077,-0.6004 -36,-2c-3.446,-1.1874 -7.113,-1.8541 -11,-2z" fill="#f7da81"/>
  </g>
  <g id="svg_43">
   <path id="svg_44" d="m166.44745,7.88147c0,20.3333 0,40.667 0,61c1.599,-0.268 2.932,0.066 4,1c-1.333,0 -2.667,0 -4,0c-1.333,-20.667 -1.333,-41.3333 0,-62z" fill="#a97e97"/>
  </g>
  <g id="svg_45">
   <path id="svg_46" d="m171.44745,6.88147c0.667,0 1.333,0 2,0c-0.283,0.7891 -0.783,1.4558 -1.5,2c-0.833,20.0083 -0.666,40.008 0.5,60c2.157,0.55 4.157,1.217 6,2c-2.885,0.306 -5.552,-0.027 -8,-1c-1.068,-0.934 -2.401,-1.268 -4,-1c0,-20.333 0,-40.6667 0,-61c1.915,0.2845 3.581,-0.0489 5,-1z" fill="#a678c7"/>
  </g>
  <g id="svg_47">
   <path id="svg_48" d="m228.44745,3.88147c4,0 8,0 12,0c13.108,2.1109 26.442,3.4442 40,4c0.988,21.2579 1.322,42.591 1,64c-3.402,-0.158 -6.736,0.176 -10,1c0.111,-0.617 0.444,-1.117 1,-1.5c2.646,-0.497 5.313,-0.664 8,-0.5c0.333,-20.344 0,-40.6776 -1,-61c-16.495,-2.0668 -33.162,-3.7334 -50,-5c0.331,23.506 -0.002,46.839 -1,70c0,-23.333 0,-46.6667 0,-70c0,-0.3333 0,-0.6667 0,-1z" fill="#afe863"/>
  </g>
  <g id="svg_49">
   <path id="svg_50" d="m280.44745,7.88147c0.996,-0.0858 1.829,0.2476 2.5,1c0.667,21 0.667,42 0,63c-11.141,1.499 -22.308,2.832 -33.5,4c-2,0 -4,0 -6,0c8.986,-2.557 18.319,-3.557 28,-3c3.264,-0.824 6.598,-1.158 10,-1c0.322,-21.409 -0.012,-42.7421 -1,-64z" fill="#c2eb8a"/>
  </g>
  <g id="svg_51">
   <path id="svg_52" d="m240.44745,3.88147c14.692,0.0771 29.192,1.4105 43.5,4c0.667,21.6667 0.667,43.333 0,65c-0.5,0.5 -1,1 -1.5,1.5c-11.066,0.269 -22.066,1.103 -33,2.5c0,-0.333 0,-0.667 0,-1c11.192,-1.168 22.359,-2.501 33.5,-4c0.667,-21 0.667,-42 0,-63c-0.671,-0.7524 -1.504,-1.0858 -2.5,-1c-13.558,-0.5558 -26.892,-1.8891 -40,-4z" fill="#f7fee5"/>
  </g>
  <g id="svg_53">
   <path id="svg_54" d="m34.44745,35.88147c0.268,-1.599 -0.066,-2.9324 -1,-4c-2.667,0 -5.333,0 -8,0c0,-5.3333 0,-10.6667 0,-16c-3.667,0 -7.333,0 -11,0c0,5.3333 0,10.6667 0,16c-2.333,0 -4.667,0 -7,0c0,1.3333 0,2.6667 0,4c-2.406,-5.1485 -0.739,-7.4818 5,-7c-0.166,-4.3461 0.001,-8.6794 0.5,-13c0.374,-0.9162 0.874,-1.7496 1.5,-2.5c3.923,-0.7927 7.756,-0.626 11.5,0.5c0.499,4.9889 0.666,9.9889 0.5,15c3.018,-0.1646 6.018,0.002 9,0.5c1.6,2.6401 1.266,4.8067 -1,6.5z" fill="#f5a061"/>
  </g>
  <g id="svg_55">
   <path id="svg_56" d="m25.44745,31.88147c2.667,0 5.333,0 8,0c0,1 0,2 0,3c-3,0 -6,0 -9,0c-0.325,7.1866 0.009,14.187 1,21c2.667,0 5.333,0 8,0c0,1.333 0,2.667 0,4c-6.258,0.31 -12.424,-0.024 -18.5,-1c-0.5,-7.659 -0.666,-15.326 -0.5,-23c-2.333,0 -4.667,0 -7,0c0,-1.3333 0,-2.6667 0,-4c2.333,0 4.667,0 7,0c0.987,-4.8054 1.321,-9.8054 1,-15c2.667,0 5.333,0 8,0c-0.608,5.4443 0.058,10.4443 2,15z" fill="#fffdf8"/>
  </g>
  <g id="svg_57">
   <path id="svg_58" d="m25.44745,31.88147c-1.942,-4.5557 -2.608,-9.5557 -2,-15c-2.667,0 -5.333,0 -8,0c0.321,5.1946 -0.013,10.1946 -1,15c0,-5.3333 0,-10.6667 0,-16c3.667,0 7.333,0 11,0c0,5.3333 0,10.6667 0,16z" fill="#fef0da"/>
  </g>
  <g id="svg_59">
   <path id="svg_60" d="m135.44745,36.88147c-1.406,6.645 -2.739,13.312 -4,20c-3.341,1.961 -7.008,2.461 -11,1.5c1.903,-4.177 2.903,-8.677 3,-13.5c1.124,-8.9678 3.124,-17.6344 6,-26c6.045,-1.8932 12.379,-2.5599 19,-2c-0.165,3.3499 0.002,6.6832 0.5,10c3.203,10.4551 5.703,21.122 7.5,32c-2.667,0 -5.333,0 -8,0c-1.418,-7.253 -2.918,-14.586 -4.5,-22c-2.937,-1.3166 -5.77,-1.3166 -8.5,0z" fill="#fefef9"/>
  </g>
  <g id="svg_61">
   <path id="svg_62" d="m149.44745,16.88147c0.651,0.5906 1.318,1.2573 2,2c3.152,13.8578 5.819,27.858 8,42c-4.202,0.317 -8.202,-0.017 -12,-1c3.333,0 6.667,0 10,0c-2.479,-14.35 -5.146,-28.6837 -8,-43z" fill="#f6de73"/>
  </g>
  <g id="svg_63">
   <path id="svg_64" d="m190.44745,19.88147c3.667,0 7.333,0 11,0c0,13.3333 0,26.667 0,40c-0.333,0 -0.667,0 -1,0c-8.252,0.316 -16.419,-0.018 -24.5,-1c-0.5,-8.66 -0.666,-17.3269 -0.5,-26c0.667,0 1,-0.3333 1,-1c4.667,0 9.333,0 14,0c0,-4 0,-8 0,-12z" fill="#fcfafe"/>
  </g>
  <g id="svg_65">
   <path id="svg_66" d="m2.44745,0.88147c0,22 0,44 0,66c20.014,1.454 40.014,3.121 60,5c0,-1 0,-2 0,-3c-2.559,0.302 -4.893,-0.032 -7,-1c2.667,0 5.333,0 8,0c0,2 0,4 0,6c-6.98,-0.665 -13.98,-0.998 -21,-1c-9.796,-1.603 -19.796,-2.603 -30,-3c-1,0 -2,0 -3,0c-2.393,-0.71 -4.893,-1.377 -7.5,-2c-0.8296,-22.504 -0.6629,-44.8371 0.5,-67z" fill="#f39f61"/>
  </g>
  <g id="svg_67">
   <path id="svg_68" d="m137.44745,21.88147c1.911,0.0743 3.078,1.0743 3.5,3c0.497,2.3098 0.663,4.6432 0.5,7c-1.333,0 -2.667,0 -4,0c0,-3.3333 0,-6.6667 0,-10z" fill="#f5df81"/>
  </g>
  <g id="svg_69">
   <path id="svg_70" d="m190.44745,19.88147c0,4 0,8 0,12c-4.667,0 -9.333,0 -14,0c4.134,-0.9849 8.468,-1.3182 13,-1c-0.315,-3.8714 0.018,-7.5381 1,-11z" fill="#b8a1ed"/>
  </g>
  <g id="svg_71">
   <path id="svg_72" d="m201.44745,59.88147c0,-13.333 0,-26.6667 0,-40c-3.667,0 -7.333,0 -11,0c1.371,-1.2868 3.205,-1.9535 5.5,-2c2.094,0.0356 4.094,0.3689 6,1c0.827,13.8396 0.661,27.506 -0.5,41z" fill="#a789ef"/>
  </g>
  <g id="svg_73">
   <path id="svg_74" d="m231.44745,31.88147c12.827,-1.1602 25.827,-1.3269 39,-0.5c0.752,0.6708 1.086,1.5041 1,2.5c-0.667,-0.3333 -1.333,-0.6667 -2,-1c-12.489,-0.9954 -25.156,-1.3287 -38,-1z" fill="#bbe97d"/>
  </g>
  <g id="svg_75">
   <path id="svg_76" d="m231.44745,31.88147c12.844,-0.3287 25.511,0.0046 38,1c-12.333,0 -24.667,0 -37,0c0,8.6667 0,17.333 0,26c2.667,0 5.333,0 8,0c-0.325,-7.852 0.008,-15.518 1,-23c0,8 0,16 0,24c-3.333,0 -6.667,0 -10,0c0,-9.333 0,-18.6667 0,-28z" fill="#f8ffe3"/>
  </g>
  <g id="svg_77">
   <path id="svg_78" d="m269.44745,32.88147c0.538,1.6172 0.871,3.2839 1,5c-0.991,6.813 -1.325,13.813 -1,21c-2.667,0 -5.333,0 -8,0c0.325,-7.852 -0.008,-15.518 -1,-23c-1.333,0 -2.667,0 -4,0c-0.992,7.482 -1.325,15.148 -1,23c-2.667,0 -5.333,0 -8,0c0.325,-7.852 -0.008,-15.518 -1,-23c-1.667,0 -3.333,0 -5,0c-0.992,7.482 -1.325,15.148 -1,23c-2.667,0 -5.333,0 -8,0c0,-8.667 0,-17.3333 0,-26c12.333,0 24.667,0 37,0z" fill="#fefefc"/>
  </g>
  <g id="svg_79">
   <path id="svg_80" d="m33.44745,31.88147c0.934,1.0676 1.268,2.401 1,4c-0.333,0 -0.667,0 -1,0c-2.667,0 -5.333,0 -8,0c0,6.667 0,13.333 0,20c-0.991,-6.813 -1.325,-13.8134 -1,-21c3,0 6,0 9,0c0,-1 0,-2 0,-3z" fill="#fbd7b9"/>
  </g>
  <g id="svg_81">
   <path id="svg_82" d="m185.44745,35.88147c1.667,0 3.333,0 5,0c0,6.667 0,13.333 0,20c-1.667,0 -3.333,0 -5,0c0,-6.667 0,-13.333 0,-20z" fill="#a78ce9"/>
  </g>
  <g id="svg_83">
   <path id="svg_84" d="m186.44745,36.88147c1.316,2.5866 1.983,5.587 2,9c-0.333,3 -0.667,6 -1,9c-0.996,-5.963 -1.329,-11.963 -1,-18z" fill="#a783fd"/>
  </g>
  <g id="svg_85">
   <path id="svg_86" d="m241.44745,35.88147c1.667,0 3.333,0 5,0c0,8 0,16 0,24c-1.805,-7.268 -2.639,-14.935 -2.5,-23c0.139,8.065 -0.695,15.732 -2.5,23c0,-8 0,-16 0,-24z" fill="#beeb81"/>
  </g>
  <g id="svg_87">
   <path id="svg_88" d="m246.44745,35.88147c0.992,7.482 1.325,15.148 1,23c2.667,0 5.333,0 8,0c-0.325,-7.852 0.008,-15.518 1,-23c0,8 0,16 0,24c-3.333,0 -6.667,0 -10,0c0,-8 0,-16 0,-24z" fill="#f7fee1"/>
  </g>
  <g id="svg_89">
   <path id="svg_90" d="m256.44745,35.88147c1.333,0 2.667,0 4,0c0,8 0,16 0,24c3.333,0 6.667,0 10,0c-3.462,0.982 -7.129,1.315 -11,1c0.331,-8.028 -0.002,-16.028 -1,-24c-0.667,7.823 -1.333,15.49 -2,23c0,-8 0,-16 0,-24z" fill="#bbe283"/>
  </g>
  <g id="svg_91">
   <path id="svg_92" d="m192.44745,4.88147c-0.111,0.6174 -0.444,1.1174 -1,1.5c-6.013,0.0085 -11.846,0.8419 -17.5,2.5c-0.667,8.6667 -0.667,17.3333 0,26c0.278,-0.9158 0.778,-1.5825 1.5,-2c-0.166,8.6731 0,17.34 0.5,26c8.081,0.982 16.248,1.316 24.5,1c-8.484,0.993 -17.151,1.326 -26,1c0,2.667 0,5.333 0,8c15.368,1.223 30.701,2.556 46,4c0,0.333 0,0.667 0,1c-14.067,-0.39 -28.067,-1.39 -42,-3c-1.843,-0.783 -3.843,-1.45 -6,-2c-1.166,-19.992 -1.333,-39.9917 -0.5,-60c0.717,-0.5442 1.217,-1.2109 1.5,-2c6.239,-1.1241 12.572,-1.7908 19,-2z" fill="#ab89ea"/>
  </g>
  <g id="svg_93">
   <path id="svg_94" d="m269.44745,32.88147c0.667,0.3333 1.333,0.6667 2,1c0.326,8.849 -0.007,17.516 -1,26c0,-7.333 0,-14.667 0,-22c-0.129,-1.7161 -0.462,-3.3828 -1,-5z" fill="#daf5b5"/>
  </g>
  <g id="svg_95">
   <path id="svg_96" d="m63.44745,32.88147c4.94,6.3626 9.273,13.196 13,20.5c-2.137,4.441 -4.137,8.941 -6,13.5c-2.243,0.974 -4.576,1.308 -7,1c0,-0.333 0,-0.667 0,-1c0,-11.333 0,-22.667 0,-34z" fill="#58bdfa"/>
  </g>
  <g id="svg_97">
   <path id="svg_98" d="m260.44745,35.88147c0.992,7.482 1.325,15.148 1,23c2.667,0 5.333,0 8,0c-0.325,-7.187 0.009,-14.187 1,-21c0,7.333 0,14.667 0,22c-3.333,0 -6.667,0 -10,0c0,-8 0,-16 0,-24z" fill="#f7ffe2"/>
  </g>
  <g id="svg_99">
   <path id="svg_100" d="m123.44745,44.88147c-0.097,4.823 -1.097,9.323 -3,13.5c3.992,0.961 7.659,0.461 11,-1.5c0,1 0,2 0,3c-4,0 -8,0 -12,0c0.579,-5.326 1.913,-10.326 4,-15z" fill="#fefbd1"/>
  </g>
  <g id="svg_101">
   <path id="svg_102" d="m129.44745,15.88147c6.854,-0.324 13.521,0.0093 20,1c2.854,14.3163 5.521,28.65 8,43c-3.333,0 -6.667,0 -10,0c-0.489,-1.495 -1.155,-2.829 -2,-4c-0.511,-6.032 -1.344,-12.032 -2.5,-18c-2.381,-0.935 -4.881,-1.2683 -7.5,-1c2.73,-1.3166 5.563,-1.3166 8.5,0c1.582,7.414 3.082,14.747 4.5,22c2.667,0 5.333,0 8,0c-1.797,-10.878 -4.297,-21.5449 -7.5,-32c-0.498,-3.3168 -0.665,-6.6501 -0.5,-10c-6.621,-0.5599 -12.955,0.1068 -19,2c0,-1 0,-2 0,-3z" fill="#fefddd"/>
  </g>
  <g id="svg_103">
   <path id="svg_104" d="m7.44745,35.88147c2.333,0 4.667,0 7,0c-0.166,7.674 0,15.341 0.5,23c6.076,0.976 12.242,1.31 18.5,1c0,-1.333 0,-2.667 0,-4c-2.667,0 -5.333,0 -8,0c0,-6.667 0,-13.333 0,-20c2.667,0 5.333,0 8,0c-2.107,0.9682 -4.441,1.3016 -7,1c0,6 0,12 0,18c3.333,0 6.667,0 10,0c0.453,3.152 -0.547,5.652 -3,7.5c-7.155,0.949 -14.155,0.449 -21,-1.5c0,-8 0,-16 0,-24c-1.915,0.2845 -3.581,-0.0489 -5,-1z" fill="#f59e5e"/>
  </g>
  <g id="svg_105">
   <path id="svg_106" d="m135.44745,36.88147c2.619,-0.2683 5.119,0.065 7.5,1c1.156,5.968 1.989,11.968 2.5,18c-1.993,-5.368 -2.993,-11.034 -3,-17c-2,0 -4,0 -6,0c-1.287,5.831 -2.121,11.831 -2.5,18c-0.983,1.948 -2.15,3.782 -3.5,5.5c-3.589,0.207 -7.089,0.707 -10.5,1.5c0.355,-1.459 0.189,-2.793 -0.5,-4c4,0 8,0 12,0c0,-1 0,-2 0,-3c1.261,-6.688 2.594,-13.355 4,-20z" fill="#f8dd66"/>
  </g>
  <g id="svg_107">
   <path id="svg_108" d="m110.44745,1.88147c0,23.3333 0,46.667 0,70c-0.333,0 -0.667,0 -1,0c-9.157,-1.03 -18.49,-1.696 -28,-2c-0.085,-3.149 0.915,-5.816 3,-8c-0.174,2.361 -0.507,4.694 -1,7c8.333,0 16.667,0 25,0c-0.656,-22.692 0.011,-45.025 2,-67z" fill="#6dbdde"/>
  </g>
  <g id="svg_109">
   <path id="svg_110" d="m12.44745,69.88147c10.204,0.397 20.204,1.397 30,3c-10.258,0.092 -20.258,-0.908 -30,-3z" fill="#fee7cd"/>
  </g>
  <g id="svg_111">
   <path id="svg_112" d="m109.44745,71.88147c0.333,0 0.667,0 1,0c0.333,0 0.667,0 1,0c0,1.333 0,2.667 0,4c15.329,-1.333 30.662,-2.666 46,-4c-0.763,0.768 -1.763,1.268 -3,1.5c-13.918,0.817 -27.752,2.317 -41.5,4.5c-4.357,-0.062 -5.524,-2.062 -3.5,-6z" fill="#fdf7ca"/>
  </g>
  <g id="svg_113">
   <path id="svg_114" d="m243.44745,75.88147c2,0 4,0 6,0c0,0.333 0,0.667 0,1c-4.693,0.04 -9.359,0.373 -14,1c2.405,-1.268 5.072,-1.935 8,-2z" fill="#d2f3a5"/>
  </g>
  <g id="svg_115">
   <path id="svg_116" d="m221.44745,73.88147c0.333,0 0.667,0 1,0c0,0.333 0,0.667 0,1c0,1 0,2 0,3c3,0 6,0 9,0c-3.125,0.979 -6.458,1.313 -10,1c0,-1.667 0,-3.333 0,-5z" fill="#bfe48b"/>
  </g>
  <g id="svg_117">
   <path id="svg_118" d="m247.22675,81.34196c-1.114,-1.853 -0.448,-2.353 2,-1.5c-0.544,0.717 -1.211,1.217 -2,1.5z" fill="#3b3b3b"/>
  </g>
  <g id="svg_119">
   <path id="svg_120" d="m277.22675,87.34196c1.333,-2 1.333,-4 0,-6c0.321,-1.548 1.321,-2.215 3,-2c0,3 0,6 0,9c-1.291,0.237 -2.291,-0.096 -3,-1z" fill="#363636"/>
  </g>
  <g id="svg_121">
   <path id="svg_122" d="m253.22675,79.34196c2.635,1.839 3.968,4.506 4,8c1,0 2,0 3,0c0,-2.667 0,-5.333 0,-8c7.927,-1.263 10.26,1.57 7,8.5c-4.333,0.667 -8.667,0.667 -13,0c1.109,-1.813 0.442,-2.646 -2,-2.5c0,1 0,2 0,3c-1.052,0.149 -2.052,-0.017 -3,-0.5c1.214,-1.979 2.881,-3.479 5,-4.5c-0.667,-0.333 -1.333,-0.667 -2,-1c0.627,-0.917 0.961,-1.917 1,-3z" fill="#474747"/>
  </g>
  <g id="svg_123">
   <path id="svg_124" d="m263.22675,80.34196c2.222,0.059 3.222,1.225 3,3.5c0.112,1.662 -0.554,2.829 -2,3.5c-0.974,-2.243 -1.308,-4.576 -1,-7z" fill="#fdfdfd"/>
  </g>
  <g id="svg_125">
   <path id="svg_126" d="m247.22675,81.34196c-1.105,2.213 -1.105,4.38 0,6.5c-3.355,1.15 -4.355,0.317 -3,-2.5c-0.304,-1.941 -1.137,-3.607 -2.5,-5c-0.691,2.391 -1.691,2.391 -3,0c-0.769,2.599 -0.602,5.099 0.5,7.5c-1.667,0.667 -3.333,0.667 -5,0c1.102,-2.401 1.269,-4.901 0.5,-7.5c-1.908,2.832 -2.741,2.499 -2.5,-1c4.333,0 8.667,0 13,0c-0.369,2.493 0.297,3.16 2,2z" fill="#414141"/>
  </g>
  <g id="svg_127">
   <path id="svg_128" d="m277.22675,81.34196c1.333,2 1.333,4 0,6c0.237,-1.291 -0.096,-2.291 -1,-3c-0.992,0.172 -1.658,-0.162 -2,-1c1.278,-0.282 2.278,-0.949 3,-2z" fill="#919191"/>
  </g>
  <g id="svg_129">
   <path id="svg_130" d="m274.22675,83.34196c0.342,0.838 1.008,1.172 2,1c0.039,1.256 -0.461,2.256 -1.5,3c-1.252,-1.501 -2.252,-3.168 -3,-5c-0.743,1.941 -0.576,3.774 0.5,5.5c-1,0.667 -2,0.667 -3,0c0.944,-2.719 1.277,-5.552 1,-8.5c2.642,-0.012 3.975,1.321 4,4z" fill="#3d3d3d"/>
  </g>
 </g>
</svg>