<svg width="71" height="71" xmlns="http://www.w3.org/2000/svg" version="1.1" clip-rule="evenodd">
 <g>
  <title>Layer 1</title>
  <g id="svg_3">
   <path fill="#fff4e1" d="m18.90508,-0.7965c14.613,0.0466 28.946,1.3799 43,4c-7.01,-0.1675 -14.01,-0.5009 -21,-1c-4.953,-0.8292 -9.953,-1.1625 -15,-1c-2.333,-0.6667 -4.667,-1.3333 -7,-2z" id="svg_4"/>
  </g>
  <g id="svg_9" fill="#f59e5e">
   <path fill="#ff7f00" d="m10.90508,1.86452c5.313,0.5978 10.646,0.9312 16,1c5.047,-0.1625 10.047,0.1708 15,1c6.77,1.5747 13.77,2.2414 21,2c-0.331,20.8401 0.003,41.507 1,62c0,0.333 0,0.667 0,1c2.107,0.968 4.441,1.302 7,1c0,1 0,2 0,3c-19.986,-1.879 -39.986,-3.546 -60,-5c0,-22 0,-44 0,-66z" id="svg_10"/>
  </g>
  <g id="svg_21">
   <path fill="#e5a778" d="m18.90508,-0.7965c2.333,0.6667 4.667,1.3333 7,2c-5.354,-0.0688 -10.687,-0.4022 -16,-1c-1.1629,22.1629 -1.3296,44.496 -0.5,67c2.607,0.623 5.107,1.29 7.5,2c-3,0 -6,0 -9,0c0,-23.333 0,-46.6667 0,-70c3.667,0 7.333,0 11,0z" id="svg_22"/>
  </g>
  <g id="svg_23">
   <path fill="#dea576" d="m40.90508,2.2035c6.99,0.4991 13.99,0.8325 21,1c0.333,0 0.667,0 1,0c0,21 0,42 0,63c-0.997,-20.493 -1.331,-41.1599 -1,-62c-7.23,0.2414 -14.23,-0.4253 -21,-2z" id="svg_24"/>
  </g>
  <g id="svg_53">
   <path fill="#f5a061" d="m41.90508,35.2035c0.268,-1.599 -0.066,-2.9324 -1,-4c-2.667,0 -5.333,0 -8,0c0,-5.3333 0,-10.6667 0,-16c-3.667,0 -7.333,0 -11,0c0,5.3333 0,10.6667 0,16c-2.333,0 -4.667,0 -7,0c0,1.3333 0,2.6667 0,4c-2.406,-5.1485 -0.739,-7.4818 5,-7c-0.166,-4.3461 0.001,-8.6794 0.5,-13c0.374,-0.9162 0.874,-1.7496 1.5,-2.5c3.923,-0.7927 7.756,-0.626 11.5,0.5c0.499,4.9889 0.666,9.9889 0.5,15c3.018,-0.1646 6.018,0.002 9,0.5c1.6,2.6401 1.266,4.8067 -1,6.5z" id="svg_54"/>
  </g>
  <g id="svg_55">
   <path fill="#fffdf8" d="m32.90508,31.2035c2.667,0 5.333,0 8,0c0,1 0,2 0,3c-3,0 -6,0 -9,0c-0.325,7.1866 0.009,14.187 1,21c2.667,0 5.333,0 8,0c0,1.333 0,2.667 0,4c-6.258,0.31 -12.424,-0.024 -18.5,-1c-0.5,-7.659 -0.666,-15.326 -0.5,-23c-2.333,0 -4.667,0 -7,0c0,-1.3333 0,-2.6667 0,-4c2.333,0 4.667,0 7,0c0.987,-4.8054 1.321,-9.8054 1,-15c2.667,0 5.333,0 8,0c-0.608,5.4443 0.058,10.4443 2,15z" id="svg_56"/>
  </g>
  <g id="svg_57">
   <path fill="#fef0da" d="m32.90508,31.2035c-1.942,-4.5557 -2.608,-9.5557 -2,-15c-2.667,0 -5.333,0 -8,0c0.321,5.1946 -0.013,10.1946 -1,15c0,-5.3333 0,-10.6667 0,-16c3.667,0 7.333,0 11,0c0,5.3333 0,10.6667 0,16z" id="svg_58"/>
  </g>
  <g stroke="null" id="svg_65">
   <path stroke="null" fill="#f39f61" d="m9.77375,0.2035c0,22 0,44 0,66c17.4323,1.454 34.85241,3.121 52.26032,5c0,-1 0,-2 0,-3c-2.2289,0.302 -4.26183,-0.032 -6.09704,-1c2.32297,0 4.64507,0 6.96804,0c0,2 0,4 0,6c-6.07962,-0.665 -12.17666,-0.998 -18.29111,-1c-8.53237,-1.603 -17.24242,-2.603 -26.13016,-3c-0.87101,0 -1.74201,0 -2.61302,0c-2.08432,-0.71 -4.26183,-1.377 -6.53254,-2c-0.72259,-22.504 -0.57739,-44.8371 0.4355,-67z" id="svg_66"/>
  </g>
  <g id="svg_79">
   <path fill="#fbd7b9" d="m40.90508,31.2035c0.934,1.0676 1.268,2.401 1,4c-0.333,0 -0.667,0 -1,0c-2.667,0 -5.333,0 -8,0c0,6.667 0,13.333 0,20c-0.991,-6.813 -1.325,-13.8134 -1,-21c3,0 6,0 9,0c0,-1 0,-2 0,-3z" id="svg_80"/>
  </g>
  <g id="svg_103">
   <path fill="#f59e5e" d="m14.90508,35.2035c2.333,0 4.667,0 7,0c-0.166,7.674 0,15.341 0.5,23c6.076,0.976 12.242,1.31 18.5,1c0,-1.333 0,-2.667 0,-4c-2.667,0 -5.333,0 -8,0c0,-6.667 0,-13.333 0,-20c2.667,0 5.333,0 8,0c-2.107,0.9682 -4.441,1.3016 -7,1c0,6 0,12 0,18c3.333,0 6.667,0 10,0c0.453,3.152 -0.547,5.652 -3,7.5c-7.155,0.949 -14.155,0.449 -21,-1.5c0,-8 0,-16 0,-24c-1.915,0.2845 -3.581,-0.0489 -5,-1z" id="svg_104"/>
  </g>
  <g id="svg_109">
   <path fill="#fee7cd" d="m19.90508,69.2035c10.204,0.397 20.204,1.397 30,3c-10.258,0.092 -20.258,-0.908 -30,-3z" id="svg_110"/>
  </g>
 </g>

</svg>